<svg xmlns="http://www.w3.org/2000/svg" xmlns:xlink="http://www.w3.org/1999/xlink" width="360" zoomAndPan="magnify" viewBox="0 0 270 230.249992" height="307" preserveAspectRatio="xMidYMid meet" version="1.0"><defs><clipPath id="375e0f5b7f"><path d="M 9.847656 9.140625 L 260.28125 9.140625 L 260.28125 220.703125 L 9.847656 220.703125 Z M 9.847656 9.140625 " clip-rule="nonzero"/></clipPath><clipPath id="7cadf90365"><path d="M 242.742188 191 L 256.792969 191 L 256.792969 208 L 242.742188 208 Z M 242.742188 191 " clip-rule="nonzero"/></clipPath><clipPath id="f7aad0a5e0"><path d="M 22 207.558594 L 57 207.558594 L 57 218.386719 L 22 218.386719 Z M 22 207.558594 " clip-rule="nonzero"/></clipPath><clipPath id="91ad61e0c7"><path d="M 133 11.90625 L 179.855469 11.90625 L 179.855469 42 L 133 42 Z M 133 11.90625 " clip-rule="nonzero"/></clipPath></defs><g clip-path="url(#375e0f5b7f)"><rect x="-27" width="324" fill="#ffffff" y="-23.024999" height="276.29999" fill-opacity="1"/><rect x="-27" width="324" fill="#ffffff" y="-23.024999" height="276.29999" fill-opacity="1"/></g><path fill="#000000" d="M 242.480469 213.699219 L 227.136719 213.699219 C 226.917969 213.703125 226.78125 213.597656 226.730469 213.382812 C 226.679688 213.171875 226.753906 213.015625 226.949219 212.917969 L 235.257812 208.558594 L 235.257812 203.890625 L 242.359375 203.890625 L 242.359375 209.664062 L 243.171875 212.769531 C 243.199219 212.878906 243.203125 212.988281 243.179688 213.097656 C 243.160156 213.210938 243.117188 213.308594 243.046875 213.398438 C 242.980469 213.488281 242.898438 213.5625 242.800781 213.613281 C 242.699219 213.664062 242.59375 213.691406 242.480469 213.699219 Z M 242.480469 213.699219 " fill-opacity="1" fill-rule="nonzero"/><g clip-path="url(#7cadf90365)"><path fill="#000000" d="M 256.476562 199.324219 L 243.453125 207.492188 C 243.371094 207.546875 243.285156 207.570312 243.1875 207.5625 C 243.089844 207.550781 243.007812 207.515625 242.9375 207.449219 C 242.867188 207.378906 242.828125 207.296875 242.816406 207.203125 C 242.804688 207.105469 242.824219 207.015625 242.875 206.933594 L 247.5625 198.941406 L 245.203125 195.0625 L 251.222656 191.289062 L 253.792969 195.523438 L 256.59375 198.152344 C 256.675781 198.234375 256.738281 198.328125 256.777344 198.4375 C 256.816406 198.542969 256.832031 198.652344 256.820312 198.769531 C 256.808594 198.882812 256.769531 198.988281 256.710938 199.085938 C 256.652344 199.179688 256.570312 199.261719 256.476562 199.324219 Z M 256.476562 199.324219 " fill-opacity="1" fill-rule="nonzero"/></g><path fill="#ffffff" d="M 92.296875 195.667969 L 89.402344 201.367188 L 84.074219 200.601562 L 86.363281 195.683594 Z M 58.195312 195.738281 L 56.199219 200.609375 L 61.554688 201.367188 L 64.445312 195.667969 Z M 58.195312 195.738281 " fill-opacity="1" fill-rule="nonzero"/><path fill="#8b0000" d="M 127.328125 89.625 L 40.316406 89.625 L 40.316406 44.785156 L 127.328125 44.785156 Z M 54.914062 33.242188 C 54.71875 33.242188 54.527344 33.277344 54.347656 33.355469 C 54.164062 33.429688 54.007812 33.539062 53.867188 33.675781 C 53.726562 33.8125 53.621094 33.972656 53.546875 34.15625 C 53.472656 34.339844 53.4375 34.527344 53.4375 34.726562 C 53.4375 34.921875 53.472656 35.105469 53.546875 35.289062 C 53.621094 35.472656 53.726562 35.632812 53.867188 35.773438 C 54.007812 35.910156 54.164062 36.019531 54.347656 36.089844 C 54.527344 36.167969 54.71875 36.203125 54.914062 36.203125 C 55.109375 36.203125 55.296875 36.167969 55.480469 36.089844 C 55.660156 36.019531 55.824219 35.910156 55.957031 35.773438 C 56.097656 35.632812 56.203125 35.472656 56.28125 35.289062 C 56.355469 35.105469 56.394531 34.921875 56.394531 34.726562 C 56.394531 34.527344 56.355469 34.339844 56.28125 34.15625 C 56.203125 33.972656 56.097656 33.8125 55.957031 33.675781 C 55.824219 33.539062 55.660156 33.429688 55.480469 33.355469 C 55.296875 33.277344 55.109375 33.242188 54.914062 33.242188 Z M 48.847656 33.242188 C 48.652344 33.242188 48.464844 33.277344 48.285156 33.351562 C 48.101562 33.429688 47.941406 33.535156 47.800781 33.671875 C 47.664062 33.8125 47.554688 33.96875 47.476562 34.152344 C 47.402344 34.332031 47.363281 34.523438 47.363281 34.71875 C 47.363281 34.914062 47.402344 35.105469 47.472656 35.285156 C 47.550781 35.46875 47.65625 35.628906 47.796875 35.769531 C 47.933594 35.910156 48.09375 36.015625 48.273438 36.089844 C 48.457031 36.167969 48.644531 36.203125 48.839844 36.203125 C 49.039062 36.203125 49.226562 36.167969 49.410156 36.089844 C 49.589844 36.019531 49.75 35.910156 49.886719 35.773438 C 50.027344 35.632812 50.136719 35.472656 50.210938 35.289062 C 50.285156 35.109375 50.320312 34.921875 50.320312 34.726562 C 50.320312 34.527344 50.285156 34.339844 50.210938 34.15625 C 50.136719 33.976562 50.03125 33.816406 49.890625 33.675781 C 49.753906 33.539062 49.59375 33.429688 49.414062 33.355469 C 49.234375 33.28125 49.042969 33.242188 48.847656 33.242188 Z M 42.78125 33.242188 C 42.582031 33.242188 42.394531 33.277344 42.210938 33.355469 C 42.03125 33.429688 41.871094 33.539062 41.734375 33.675781 C 41.59375 33.8125 41.488281 33.972656 41.410156 34.15625 C 41.335938 34.339844 41.300781 34.527344 41.300781 34.726562 C 41.300781 34.921875 41.335938 35.105469 41.410156 35.289062 C 41.488281 35.472656 41.59375 35.632812 41.734375 35.773438 C 41.871094 35.910156 42.03125 36.019531 42.210938 36.089844 C 42.394531 36.167969 42.582031 36.203125 42.78125 36.203125 C 42.976562 36.203125 43.164062 36.167969 43.34375 36.089844 C 43.527344 36.019531 43.6875 35.910156 43.824219 35.773438 C 43.964844 35.632812 44.070312 35.472656 44.144531 35.289062 C 44.21875 35.105469 44.257812 34.921875 44.257812 34.726562 C 44.261719 34.527344 44.21875 34.335938 44.148438 34.15625 C 44.070312 33.972656 43.964844 33.8125 43.824219 33.675781 C 43.6875 33.535156 43.527344 33.429688 43.347656 33.351562 C 43.164062 33.277344 42.976562 33.242188 42.78125 33.242188 Z M 42.78125 33.242188 " fill-opacity="1" fill-rule="nonzero"/><g clip-path="url(#f7aad0a5e0)"><path fill="#000000" d="M 38.414062 217.929688 L 23 217.453125 C 22.890625 217.453125 22.777344 217.421875 22.675781 217.371094 C 22.574219 217.316406 22.492188 217.242188 22.425781 217.148438 C 22.355469 217.054688 22.3125 216.949219 22.292969 216.835938 C 22.273438 216.726562 22.28125 216.613281 22.3125 216.5 L 23.328125 213.050781 L 23.941406 207.640625 L 31.046875 207.855469 L 30.519531 212.589844 L 38.644531 217.148438 C 38.832031 217.257812 38.894531 217.417969 38.835938 217.625 C 38.773438 217.839844 38.632812 217.9375 38.414062 217.929688 Z M 56.644531 217.699219 L 48.355469 213.046875 L 48 208.371094 L 40.894531 208.160156 L 41.320312 213.691406 L 40.328125 217.03125 C 40.296875 217.140625 40.289062 217.253906 40.308594 217.367188 C 40.328125 217.480469 40.375 217.582031 40.4375 217.675781 C 40.507812 217.769531 40.59375 217.84375 40.691406 217.894531 C 40.792969 217.949219 40.902344 217.976562 41.015625 217.980469 L 56.4375 218.457031 C 56.636719 218.445312 56.761719 218.347656 56.816406 218.15625 C 56.867188 217.960938 56.8125 217.808594 56.644531 217.699219 Z M 56.644531 217.699219 " fill-opacity="1" fill-rule="nonzero"/></g><path fill="#ffffff" d="M 22.472656 137.386719 L 27.996094 134.636719 L 27.734375 133.683594 L 30.515625 133.390625 L 39.679688 128.855469 L 39.777344 132.425781 L 45.917969 131.78125 L 50.949219 159.679688 C 51.078125 160.414062 51.144531 161.15625 51.144531 161.898438 L 51.3125 210.042969 L 39.757812 209.695312 L 37.746094 177.96875 L 32.644531 209.101562 L 32.59375 209.394531 L 21.546875 209.058594 L 25.605469 163.449219 L 22.507812 137.625 Z M 22.472656 137.386719 " fill-opacity="1" fill-rule="nonzero"/><path fill="#000000" d="M 51.398438 161.921875 C 51.394531 161.164062 51.324219 160.414062 51.1875 159.667969 L 46.164062 131.773438 C 46.136719 131.632812 46.054688 131.566406 45.910156 131.582031 L 40.019531 132.195312 L 39.925781 128.878906 C 39.921875 128.792969 39.886719 128.730469 39.8125 128.6875 C 39.742188 128.644531 39.667969 128.640625 39.59375 128.679688 L 30.46875 133.199219 L 27.730469 133.484375 C 27.660156 133.496094 27.601562 133.527344 27.554688 133.585938 C 27.515625 133.644531 27.507812 133.707031 27.527344 133.777344 L 27.75 134.546875 L 22.371094 137.207031 C 22.273438 137.257812 22.234375 137.332031 22.246094 137.441406 L 25.371094 163.460938 L 21.316406 209.066406 C 21.3125 209.132812 21.328125 209.191406 21.367188 209.238281 C 21.414062 209.289062 21.46875 209.3125 21.535156 209.3125 L 32.585938 209.652344 C 32.71875 209.660156 32.792969 209.59375 32.816406 209.460938 L 37.660156 180.035156 L 39.535156 209.738281 C 39.546875 209.882812 39.621094 209.953125 39.765625 209.957031 L 51.316406 210.308594 C 51.378906 210.308594 51.4375 210.289062 51.484375 210.242188 C 51.53125 210.199219 51.554688 210.140625 51.558594 210.078125 Z M 39.992188 209.472656 L 37.996094 177.96875 C 38.519531 171.34375 39.335938 161.308594 39.457031 160.835938 C 39.65625 160.128906 37.367188 150.683594 36.902344 148.796875 C 36.890625 148.734375 36.859375 148.683594 36.804688 148.652344 C 36.75 148.617188 36.691406 148.609375 36.632812 148.621094 C 36.570312 148.636719 36.523438 148.671875 36.488281 148.726562 C 36.457031 148.78125 36.445312 148.839844 36.460938 148.902344 C 37.5 153.167969 39.113281 160.148438 39.007812 160.710938 C 38.820312 161.386719 37.652344 176.210938 37.519531 177.925781 L 32.386719 209.136719 L 21.777344 208.816406 L 25.804688 163.40625 L 22.738281 137.582031 L 22.738281 137.507812 L 28.140625 134.839844 C 28.253906 134.78125 28.289062 134.691406 28.257812 134.570312 L 28.066406 133.875 L 30.558594 133.640625 L 30.636719 133.640625 L 39.457031 129.21875 L 39.542969 132.433594 C 39.546875 132.496094 39.574219 132.550781 39.621094 132.59375 C 39.671875 132.636719 39.730469 132.65625 39.796875 132.652344 L 45.730469 132.035156 L 50.71875 159.703125 C 50.859375 160.4375 50.933594 161.179688 50.9375 161.921875 L 51.121094 209.8125 Z M 39.992188 209.472656 " fill-opacity="1" fill-rule="nonzero"/><path fill="#8b0000" d="M 127.5 166.117188 L 217.457031 166.117188 L 217.457031 212.457031 L 127.5 212.457031 Z M 127.5 166.117188 " fill-opacity="1" fill-rule="nonzero"/><path fill="#000000" d="M 123.21875 86.425781 L 36.203125 86.425781 C 36.140625 86.425781 36.085938 86.40625 36.039062 86.359375 C 35.996094 86.316406 35.972656 86.261719 35.972656 86.195312 L 35.972656 41.359375 C 35.972656 41.292969 35.996094 41.238281 36.039062 41.195312 C 36.085938 41.148438 36.140625 41.128906 36.203125 41.128906 L 123.21875 41.128906 C 123.28125 41.128906 123.335938 41.148438 123.378906 41.195312 C 123.425781 41.238281 123.449219 41.292969 123.449219 41.359375 L 123.449219 86.195312 C 123.449219 86.261719 123.425781 86.316406 123.378906 86.359375 C 123.335938 86.40625 123.28125 86.425781 123.21875 86.425781 Z M 36.433594 85.960938 L 122.976562 85.960938 L 122.976562 41.589844 L 36.433594 41.589844 Z M 123.21875 38.671875 L 36.203125 38.671875 C 36.140625 38.671875 36.085938 38.652344 36.039062 38.605469 C 35.996094 38.5625 35.972656 38.503906 35.972656 38.441406 L 35.972656 31.003906 C 35.972656 30.9375 35.996094 30.882812 36.039062 30.835938 C 36.085938 30.792969 36.140625 30.769531 36.203125 30.769531 L 123.21875 30.769531 C 123.28125 30.769531 123.335938 30.792969 123.378906 30.835938 C 123.425781 30.882812 123.449219 30.9375 123.449219 31.003906 L 123.449219 38.441406 C 123.449219 38.503906 123.425781 38.5625 123.378906 38.605469 C 123.335938 38.652344 123.28125 38.671875 123.21875 38.671875 Z M 36.433594 38.210938 L 122.976562 38.210938 L 122.976562 31.230469 L 36.433594 31.230469 Z M 36.433594 38.210938 " fill-opacity="1" fill-rule="nonzero"/><path fill="#ffffff" d="M 223.417969 57.871094 L 223.417969 134.257812 C 223.414062 134.785156 223.367188 135.3125 223.261719 135.828125 C 223.15625 136.347656 223.003906 136.855469 222.800781 137.34375 C 222.597656 137.832031 222.351562 138.296875 222.054688 138.734375 C 221.761719 139.179688 221.425781 139.585938 221.050781 139.960938 C 220.679688 140.332031 220.273438 140.667969 219.835938 140.960938 C 219.390625 141.257812 218.929688 141.507812 218.441406 141.707031 C 217.953125 141.910156 217.445312 142.066406 216.929688 142.167969 C 216.410156 142.269531 215.886719 142.324219 215.359375 142.324219 L 91.121094 142.324219 C 90.59375 142.324219 90.066406 142.273438 89.546875 142.171875 C 89.023438 142.066406 88.519531 141.914062 88.03125 141.714844 C 87.542969 141.511719 87.078125 141.261719 86.636719 140.972656 C 86.195312 140.679688 85.785156 140.34375 85.410156 139.964844 C 85.035156 139.59375 84.699219 139.183594 84.402344 138.746094 C 84.109375 138.304688 83.859375 137.839844 83.65625 137.351562 C 83.453125 136.859375 83.296875 136.351562 83.195312 135.832031 C 83.089844 135.3125 83.039062 134.785156 83.035156 134.257812 L 83.035156 57.871094 C 83.039062 57.34375 83.089844 56.816406 83.195312 56.296875 C 83.296875 55.78125 83.453125 55.273438 83.652344 54.785156 C 83.855469 54.296875 84.105469 53.832031 84.402344 53.390625 C 84.691406 52.949219 85.027344 52.542969 85.402344 52.167969 C 85.773438 51.792969 86.183594 51.460938 86.621094 51.164062 C 87.0625 50.871094 87.527344 50.621094 88.015625 50.417969 C 88.503906 50.21875 89.007812 50.0625 89.527344 49.960938 C 90.042969 49.859375 90.570312 49.804688 91.097656 49.804688 L 215.359375 49.804688 C 215.886719 49.804688 216.410156 49.859375 216.929688 49.960938 C 217.445312 50.0625 217.953125 50.21875 218.441406 50.417969 C 218.929688 50.621094 219.390625 50.871094 219.835938 51.164062 C 220.273438 51.460938 220.679688 51.792969 221.050781 52.167969 C 221.425781 52.542969 221.761719 52.949219 222.054688 53.390625 C 222.351562 53.832031 222.597656 54.296875 222.800781 54.785156 C 223.003906 55.273438 223.15625 55.78125 223.261719 56.296875 C 223.367188 56.816406 223.414062 57.34375 223.417969 57.871094 Z M 223.417969 57.871094 " fill-opacity="1" fill-rule="nonzero"/><path fill="#000000" d="M 215.359375 142.542969 L 91.121094 142.542969 C 90.578125 142.542969 90.039062 142.492188 89.507812 142.382812 C 88.972656 142.277344 88.453125 142.117188 87.953125 141.910156 C 87.449219 141.699219 86.972656 141.445312 86.519531 141.140625 C 86.066406 140.835938 85.648438 140.496094 85.265625 140.109375 C 84.882812 139.722656 84.535156 139.304688 84.234375 138.851562 C 83.933594 138.402344 83.675781 137.921875 83.46875 137.417969 C 83.257812 136.914062 83.101562 136.394531 82.996094 135.863281 C 82.890625 135.328125 82.835938 134.789062 82.835938 134.242188 L 82.835938 57.871094 C 82.835938 57.324219 82.890625 56.789062 82.996094 56.253906 C 83.101562 55.71875 83.257812 55.203125 83.46875 54.695312 C 83.675781 54.195312 83.933594 53.714844 84.234375 53.261719 C 84.535156 52.8125 84.882812 52.390625 85.265625 52.007812 C 85.648438 51.621094 86.066406 51.277344 86.519531 50.976562 C 86.972656 50.671875 87.449219 50.417969 87.953125 50.207031 C 88.453125 49.996094 88.972656 49.839844 89.507812 49.730469 C 90.039062 49.625 90.578125 49.570312 91.121094 49.570312 L 215.359375 49.570312 C 215.902344 49.570312 216.441406 49.625 216.976562 49.730469 C 217.507812 49.835938 218.023438 49.996094 218.53125 50.203125 C 219.03125 50.414062 219.507812 50.667969 219.960938 50.972656 C 220.410156 51.273438 220.828125 51.621094 221.214844 52.003906 C 221.601562 52.386719 221.945312 52.808594 222.246094 53.261719 C 222.550781 53.714844 222.804688 54.195312 223.011719 54.695312 C 223.21875 55.199219 223.378906 55.714844 223.484375 56.253906 C 223.59375 56.789062 223.644531 57.324219 223.644531 57.871094 L 223.644531 134.257812 C 223.644531 134.800781 223.589844 135.339844 223.480469 135.875 C 223.375 136.410156 223.214844 136.925781 223.007812 137.429688 C 222.800781 137.929688 222.546875 138.40625 222.242188 138.859375 C 221.9375 139.3125 221.597656 139.730469 221.210938 140.117188 C 220.828125 140.5 220.410156 140.84375 219.957031 141.148438 C 219.503906 141.449219 219.027344 141.703125 218.527344 141.910156 C 218.023438 142.121094 217.507812 142.277344 216.972656 142.382812 C 216.441406 142.492188 215.902344 142.542969 215.359375 142.542969 Z M 91.121094 50.027344 C 90.609375 50.027344 90.097656 50.078125 89.597656 50.175781 C 89.089844 50.28125 88.601562 50.425781 88.128906 50.625 C 87.652344 50.820312 87.203125 51.066406 86.773438 51.351562 C 86.347656 51.636719 85.953125 51.960938 85.589844 52.324219 C 85.226562 52.6875 84.902344 53.082031 84.617188 53.511719 C 84.332031 53.9375 84.089844 54.390625 83.894531 54.867188 C 83.695312 55.339844 83.546875 55.832031 83.449219 56.335938 C 83.34375 56.839844 83.296875 57.347656 83.296875 57.863281 L 83.296875 134.257812 C 83.296875 134.773438 83.34375 135.28125 83.449219 135.785156 C 83.546875 136.289062 83.695312 136.78125 83.894531 137.257812 C 84.089844 137.730469 84.332031 138.179688 84.617188 138.609375 C 84.902344 139.039062 85.226562 139.433594 85.589844 139.796875 C 85.953125 140.164062 86.347656 140.484375 86.773438 140.769531 C 87.203125 141.058594 87.652344 141.300781 88.128906 141.496094 C 88.601562 141.695312 89.089844 141.84375 89.597656 141.945312 C 90.097656 142.042969 90.609375 142.09375 91.121094 142.09375 L 215.359375 142.09375 C 215.875 142.09375 216.382812 142.042969 216.886719 141.945312 C 217.386719 141.84375 217.878906 141.695312 218.351562 141.496094 C 218.828125 141.300781 219.277344 141.058594 219.703125 140.769531 C 220.132812 140.484375 220.527344 140.164062 220.890625 139.796875 C 221.253906 139.433594 221.578125 139.039062 221.863281 138.609375 C 222.148438 138.179688 222.390625 137.730469 222.585938 137.257812 C 222.785156 136.78125 222.929688 136.289062 223.035156 135.785156 C 223.132812 135.28125 223.183594 134.773438 223.183594 134.257812 L 223.183594 57.871094 C 223.183594 57.355469 223.132812 56.847656 223.035156 56.34375 C 222.933594 55.835938 222.785156 55.347656 222.589844 54.871094 C 222.394531 54.394531 222.152344 53.945312 221.867188 53.515625 C 221.582031 53.085938 221.253906 52.691406 220.894531 52.324219 C 220.527344 51.960938 220.132812 51.636719 219.707031 51.351562 C 219.28125 51.066406 218.828125 50.820312 218.351562 50.625 C 217.878906 50.425781 217.390625 50.28125 216.886719 50.175781 C 216.382812 50.078125 215.875 50.027344 215.359375 50.027344 Z M 91.121094 50.027344 " fill-opacity="1" fill-rule="nonzero"/><path fill="#000000" d="M 98.441406 86.765625 C 100.691406 82.027344 102.433594 61.941406 102.433594 61.941406 L 115.636719 61.191406 L 115.636719 86.765625 Z M 192.605469 109.410156 L 192.605469 83.839844 L 179.402344 84.585938 C 179.402344 84.585938 177.660156 104.667969 175.417969 109.410156 Z M 163.5 85.035156 L 163.5 67.894531 L 154.648438 68.394531 C 154.648438 68.394531 153.480469 81.863281 151.976562 85.035156 Z M 163.5 85.035156 " fill-opacity="1" fill-rule="nonzero"/><path fill="#000000" d="M 89.578125 201.703125 L 83.628906 200.847656 L 86.167969 195.355469 L 92.796875 195.355469 Z M 84.523438 200.363281 L 89.230469 201.035156 L 91.804688 195.964844 L 86.554688 195.964844 Z M 61.703125 201.703125 L 55.765625 200.847656 L 57.988281 195.429688 L 64.917969 195.351562 Z M 56.644531 200.355469 L 61.367188 201.035156 L 63.9375 195.972656 L 58.410156 196.039062 Z M 56.644531 200.355469 " fill-opacity="1" fill-rule="nonzero"/><path fill="#000000" d="M 84.265625 199.550781 C 84.265625 199.550781 87.335938 201.953125 90.027344 199.5 L 98.066406 203.695312 C 98.242188 203.789062 98.304688 203.933594 98.257812 204.125 C 98.210938 204.316406 98.085938 204.414062 97.890625 204.417969 L 83.652344 204.417969 C 83.203125 204.417969 82.148438 203.757812 82.261719 203.324219 Z M 54.71875 203.410156 C 54.625 203.515625 55.332031 204.417969 55.808594 204.417969 L 70 204.417969 C 70.195312 204.414062 70.320312 204.316406 70.367188 204.125 C 70.414062 203.933594 70.347656 203.789062 70.179688 203.695312 L 62.167969 199.5 C 59.453125 201.960938 56.226562 199.5 56.226562 199.5 Z M 54.71875 203.410156 " fill-opacity="1" fill-rule="nonzero"/><path fill="#000000" d="M 125.886719 102.433594 C 127.113281 99.800781 128.101562 88.648438 128.101562 88.648438 L 135.429688 88.230469 L 135.429688 102.433594 Z M 125.886719 102.433594 " fill-opacity="1" fill-rule="nonzero"/><path fill="#8b0000" d="M 125.847656 88.199219 L 135.394531 88.199219 C 135.394531 88.199219 135.746094 95.398438 133.320312 99.554688 L 121.773438 101.429688 C 121.773438 101.429688 124.402344 100.441406 125.847656 88.199219 Z M 125.847656 88.199219 " fill-opacity="1" fill-rule="nonzero"/><path fill="#ffdfd1" d="M 132.484375 92.449219 L 129.519531 96.339844 L 126.644531 98.433594 L 119.863281 117.007812 L 105.882812 120.78125 L 104.957031 111.828125 L 114.933594 109.902344 L 121.453125 96.90625 L 121.738281 92.265625 L 123.621094 87.289062 L 123.683594 87.234375 C 123.949219 87.007812 124.257812 86.925781 124.605469 86.996094 C 124.726562 87.027344 124.835938 87.085938 124.933594 87.167969 L 125.230469 86.316406 L 125.359375 86.269531 C 125.523438 86.203125 126.382812 85.890625 126.839844 86.269531 C 126.910156 86.324219 126.96875 86.390625 127.007812 86.472656 C 127.308594 86.273438 127.636719 86.222656 127.984375 86.3125 C 128.171875 86.40625 128.324219 86.542969 128.433594 86.722656 C 128.546875 86.902344 128.601562 87.097656 128.597656 87.308594 L 128.597656 87.457031 C 128.808594 87.414062 129.011719 87.425781 129.210938 87.5 C 129.609375 87.691406 129.828125 88.011719 129.871094 88.453125 L 129.871094 88.507812 L 129.253906 92.4375 L 128.878906 93.542969 C 129.691406 92.863281 130.925781 92.082031 132.042969 92.3125 Z M 132.484375 92.449219 " fill-opacity="1" fill-rule="nonzero"/><path fill="#ffffff" d="M 98.191406 139.175781 L 107.8125 161.820312 C 108.308594 162.996094 108.542969 164.222656 108.519531 165.503906 C 108.488281 166.785156 108.199219 167.996094 107.652344 169.15625 L 93.378906 197.71875 L 84.074219 197.71875 L 95.773438 169.136719 L 85.117188 146.449219 Z M 98.191406 139.175781 " fill-opacity="1" fill-rule="nonzero"/><path fill="#000000" d="M 93.378906 197.949219 L 84.074219 197.949219 C 83.992188 197.949219 83.929688 197.914062 83.882812 197.847656 C 83.84375 197.773438 83.84375 197.703125 83.882812 197.632812 L 95.546875 169.140625 L 84.910156 146.554688 C 84.882812 146.496094 84.875 146.445312 84.894531 146.382812 C 84.914062 146.328125 84.953125 146.285156 85.007812 146.257812 L 98.082031 138.984375 C 98.144531 138.953125 98.203125 138.953125 98.265625 138.984375 C 98.332031 139.003906 98.378906 139.046875 98.40625 139.117188 L 108.019531 161.75 C 108.53125 162.960938 108.773438 164.21875 108.746094 165.53125 C 108.71875 166.84375 108.421875 168.089844 107.859375 169.277344 L 93.589844 197.847656 C 93.539062 197.921875 93.46875 197.957031 93.378906 197.949219 Z M 84.417969 197.492188 L 93.238281 197.492188 L 107.441406 169.046875 C 107.976562 167.929688 108.253906 166.742188 108.28125 165.503906 C 108.308594 164.261719 108.078125 163.066406 107.589844 161.921875 L 98.074219 139.515625 L 85.421875 146.554688 L 95.984375 169.042969 C 96.011719 169.105469 96.011719 169.164062 95.984375 169.226562 Z M 84.417969 197.492188 " fill-opacity="1" fill-rule="nonzero"/><path fill="#000000" d="M 83.558594 119.980469 C 83.222656 119.898438 75.464844 114.117188 79.9375 108.078125 C 79.9375 108.078125 83.730469 104.449219 84.417969 101.171875 C 85.105469 97.898438 87.335938 92.71875 92.859375 92.890625 C 92.859375 92.890625 99.75 93.066406 98.195312 100.484375 C 98.195312 100.484375 96.300781 104.105469 97.167969 106.347656 C 98.03125 108.59375 99.402344 111.183594 98.394531 113.597656 C 97.386719 116.015625 94.582031 122.574219 83.558594 119.980469 Z M 83.558594 119.980469 " fill-opacity="1" fill-rule="nonzero"/><path fill="#ffdfd1" d="M 99.15625 105.363281 C 99.03125 105.898438 98.726562 106.289062 98.242188 106.546875 C 96.921875 107.246094 95.988281 107.574219 95.398438 107.542969 L 96.140625 114.117188 L 87.453125 113.785156 L 89.476562 104.726562 C 88.957031 104.363281 87.496094 103.238281 87.503906 102.03125 C 87.53125 101.695312 87.640625 101.386719 87.835938 101.109375 C 88.027344 100.828125 88.28125 100.625 88.59375 100.484375 L 88.667969 100.441406 L 88.746094 100.441406 C 89.101562 100.453125 89.4375 100.535156 89.757812 100.6875 C 89.671875 99.773438 89.878906 98.925781 90.371094 98.15625 C 90.769531 97.652344 91.296875 97.386719 91.9375 97.375 C 92.574219 97.359375 93.179688 97.21875 93.753906 96.945312 C 94.328125 96.671875 94.820312 96.296875 95.234375 95.8125 L 95.5 95.4375 L 95.738281 95.824219 C 95.925781 96.101562 99.921875 102.488281 99.15625 105.363281 Z M 99.15625 105.363281 " fill-opacity="1" fill-rule="nonzero"/><path fill="#ffffff" d="M 95.824219 142.484375 L 86.328125 169.917969 C 86.039062 170.785156 85.628906 171.59375 85.101562 172.335938 L 65.753906 197.71875 L 56.0625 197.71875 L 72.84375 165.847656 L 77.859375 145.757812 Z M 95.824219 142.484375 " fill-opacity="1" fill-rule="nonzero"/><path fill="#000000" d="M 65.753906 197.949219 L 56.0625 197.949219 C 55.972656 197.949219 55.910156 197.910156 55.867188 197.835938 C 55.824219 197.761719 55.824219 197.6875 55.867188 197.613281 L 72.640625 165.738281 L 77.628906 145.707031 C 77.652344 145.605469 77.714844 145.550781 77.816406 145.53125 L 95.78125 142.246094 C 95.867188 142.230469 95.941406 142.253906 96 142.324219 C 96.050781 142.390625 96.070312 142.46875 96.042969 142.550781 L 86.546875 169.976562 C 86.238281 170.859375 85.808594 171.679688 85.261719 172.4375 L 65.9375 197.828125 C 65.898438 197.902344 65.835938 197.945312 65.753906 197.949219 Z M 56.445312 197.492188 L 65.65625 197.492188 L 84.878906 172.191406 C 85.402344 171.464844 85.816406 170.679688 86.105469 169.828125 L 95.472656 142.78125 L 78.039062 145.9375 L 73.066406 165.882812 Z M 56.445312 197.492188 " fill-opacity="1" fill-rule="nonzero"/><path fill="#8b0000" d="M 114.082031 120.628906 L 105.492188 122.214844 C 105.09375 123.441406 102.734375 130.652344 102.265625 133.171875 C 101.464844 137.480469 102.214844 142.691406 102.21875 142.738281 L 102.253906 143.011719 L 74.445312 150.421875 L 78.273438 131.796875 L 71.773438 125.035156 L 78.570312 113.089844 C 79.023438 112.445312 79.585938 111.914062 80.253906 111.492188 C 80.925781 111.074219 81.648438 110.800781 82.429688 110.679688 L 87.988281 109.800781 L 88.101562 109.910156 C 89.824219 111.636719 91.421875 112.367188 92.832031 112.160156 C 94.632812 111.859375 95.550781 110.007812 95.558594 109.988281 L 95.65625 109.792969 L 95.875 109.792969 L 106.121094 111.089844 L 112.070312 110.367188 Z M 114.082031 120.628906 " fill-opacity="1" fill-rule="nonzero"/><path fill="#000000" d="M 96.28125 140.949219 C 95.824219 137.75 98.175781 125.515625 98.175781 125.515625 L 106.707031 125.027344 L 106.707031 134.1875 C 106.707031 136.03125 107.859375 141.566406 107.859375 141.566406 Z M 96.28125 140.949219 " fill-opacity="1" fill-rule="nonzero"/><path fill="#ffffff" d="M 95.550781 124.988281 L 106.667969 124.988281 C 106.667969 124.988281 107.066406 133.375 104.25 138.21875 L 90.800781 140.40625 C 90.800781 140.40625 93.863281 139.269531 95.550781 124.988281 Z M 95.550781 124.988281 " fill-opacity="1" fill-rule="nonzero"/><path fill="#000000" d="M 90.800781 140.625 C 90.679688 140.628906 90.609375 140.570312 90.582031 140.457031 C 90.546875 140.320312 90.59375 140.230469 90.722656 140.175781 C 90.722656 140.175781 93.6875 138.777344 95.324219 124.960938 C 95.34375 124.828125 95.417969 124.761719 95.550781 124.757812 L 106.667969 124.757812 C 106.730469 124.757812 106.78125 124.78125 106.828125 124.820312 C 106.871094 124.863281 106.894531 124.917969 106.894531 124.980469 C 106.894531 125.324219 107.269531 133.496094 104.441406 138.332031 C 104.40625 138.402344 104.355469 138.4375 104.28125 138.445312 L 90.835938 140.625 Z M 95.761719 125.21875 C 94.53125 135.367188 92.605469 138.863281 91.574219 140.035156 L 104.101562 138.007812 C 106.558594 133.703125 106.480469 126.558594 106.441406 125.21875 Z M 95.761719 125.21875 " fill-opacity="1" fill-rule="nonzero"/><path fill="#ffdfd1" d="M 101.449219 129.472656 C 101.535156 129.777344 101.496094 130.066406 101.339844 130.339844 C 101.132812 130.652344 100.847656 130.84375 100.472656 130.90625 L 100.394531 130.90625 L 98.507812 130.21875 L 93.238281 131.582031 L 70.898438 137.945312 C 70.351562 138.101562 69.808594 138.097656 69.261719 137.933594 C 68.71875 137.773438 68.261719 137.476562 67.890625 137.046875 C 67.519531 136.613281 67.296875 136.121094 67.214844 135.558594 C 67.136719 134.996094 67.210938 134.453125 67.449219 133.9375 C 71.84375 124.230469 72.117188 124.230469 72.414062 124.230469 L 72.449219 124.230469 L 79.730469 126.207031 L 79.527344 126.554688 C 78.914062 127.597656 78.257812 128.761719 77.925781 129.375 C 79.828125 129.09375 86.824219 127.777344 91.644531 126.84375 L 94.21875 124.777344 L 98.683594 123.351562 L 101.066406 124.082031 L 101.101562 124.082031 C 101.660156 124.453125 101.535156 125.378906 101.445312 125.792969 C 101.679688 126.039062 101.8125 126.339844 101.847656 126.679688 C 101.886719 127.023438 101.816406 127.339844 101.644531 127.632812 C 101.8125 127.929688 101.878906 128.246094 101.84375 128.585938 C 101.808594 128.921875 101.675781 129.21875 101.449219 129.472656 Z M 101.449219 129.472656 " fill-opacity="1" fill-rule="nonzero"/><path fill="#8b0000" d="M 158.722656 37.066406 L 158.722656 37.035156 L 141.90625 38.4375 L 149.4375 22.453125 L 159.074219 36.3125 L 164.550781 24.683594 L 172.335938 35.929688 Z M 157.40625 24.117188 C 157.75 24.085938 158.082031 23.996094 158.390625 23.832031 C 158.699219 23.671875 158.96875 23.457031 159.195312 23.191406 C 159.417969 22.925781 159.582031 22.621094 159.691406 22.289062 C 159.796875 21.957031 159.832031 21.613281 159.800781 21.265625 C 159.769531 20.914062 159.671875 20.585938 159.511719 20.277344 C 159.351562 19.96875 159.136719 19.703125 158.871094 19.476562 C 158.601562 19.253906 158.296875 19.085938 157.964844 18.984375 C 157.632812 18.878906 157.292969 18.84375 156.945312 18.875 C 156.59375 18.90625 156.269531 19.003906 155.957031 19.167969 C 155.648438 19.328125 155.382812 19.546875 155.160156 19.816406 C 154.9375 20.085938 154.777344 20.386719 154.671875 20.71875 C 154.570312 21.054688 154.535156 21.398438 154.566406 21.742188 C 154.601562 22.089844 154.695312 22.414062 154.859375 22.722656 C 155.019531 23.03125 155.230469 23.292969 155.496094 23.515625 C 155.761719 23.738281 156.0625 23.902344 156.394531 24.007812 C 156.722656 24.109375 157.058594 24.148438 157.40625 24.117188 Z M 157.40625 24.117188 " fill-opacity="1" fill-rule="nonzero"/><path fill="#ffffff" d="M 176.160156 58.632812 L 206.574219 58.667969 L 206.574219 76.328125 L 176.160156 76.292969 Z M 176.160156 58.632812 " fill-opacity="1" fill-rule="nonzero"/><path fill="#000000" d="M 206.554688 76.550781 L 176.144531 76.511719 C 176.078125 76.511719 176.023438 76.488281 175.980469 76.445312 C 175.933594 76.402344 175.910156 76.347656 175.910156 76.285156 L 175.910156 58.625 C 175.914062 58.480469 175.988281 58.402344 176.136719 58.398438 L 206.550781 58.4375 C 206.617188 58.4375 206.667969 58.460938 206.714844 58.503906 C 206.757812 58.546875 206.78125 58.601562 206.785156 58.664062 L 206.785156 76.324219 C 206.785156 76.386719 206.761719 76.4375 206.71875 76.484375 C 206.671875 76.527344 206.617188 76.550781 206.554688 76.550781 Z M 176.371094 76.050781 L 206.324219 76.089844 L 206.324219 58.871094 L 176.371094 58.835938 Z M 176.371094 76.050781 " fill-opacity="1" fill-rule="nonzero"/><path fill="#8b0000" d="M 190.285156 74.664062 L 180.882812 74.664062 L 185.59375 66.511719 L 190.003906 74.179688 L 195.820312 64.113281 L 201.890625 74.667969 Z M 190.453125 65.730469 C 190.695312 65.730469 190.933594 65.691406 191.164062 65.601562 C 191.386719 65.511719 191.589844 65.378906 191.765625 65.210938 C 191.941406 65.039062 192.082031 64.839844 192.179688 64.613281 C 192.273438 64.390625 192.324219 64.15625 192.328125 63.910156 C 192.332031 63.664062 192.289062 63.429688 192.199219 63.199219 C 192.105469 62.972656 191.976562 62.769531 191.804688 62.59375 C 191.628906 62.417969 191.429688 62.285156 191.207031 62.1875 C 190.980469 62.089844 190.746094 62.042969 190.5 62.042969 C 190.257812 62.039062 190.015625 62.085938 189.792969 62.175781 C 189.566406 62.269531 189.363281 62.402344 189.191406 62.578125 C 189.015625 62.75 188.882812 62.949219 188.789062 63.175781 C 188.691406 63.402344 188.644531 63.636719 188.644531 63.882812 C 188.644531 64.125 188.6875 64.363281 188.777344 64.585938 C 188.867188 64.8125 188.996094 65.011719 189.164062 65.183594 C 189.332031 65.355469 189.53125 65.492188 189.75 65.585938 C 189.976562 65.679688 190.210938 65.730469 190.453125 65.730469 Z M 190.453125 65.730469 " fill-opacity="1" fill-rule="nonzero"/><path fill="#ffffff" d="M 233.945312 48.339844 C 233.945312 49.09375 233.871094 49.839844 233.722656 50.578125 C 233.578125 51.316406 233.363281 52.03125 233.074219 52.730469 C 232.785156 53.425781 232.433594 54.085938 232.011719 54.710938 C 231.597656 55.335938 231.125 55.917969 230.59375 56.449219 C 230.058594 56.980469 229.480469 57.457031 228.855469 57.875 C 228.234375 58.292969 227.570312 58.644531 226.878906 58.933594 C 226.183594 59.226562 225.46875 59.441406 224.730469 59.585938 C 223.992188 59.734375 223.25 59.808594 222.496094 59.808594 C 221.746094 59.808594 221.003906 59.734375 220.261719 59.585938 C 219.523438 59.441406 218.8125 59.226562 218.117188 58.933594 C 217.421875 58.644531 216.761719 58.292969 216.136719 57.875 C 215.511719 57.457031 214.933594 56.980469 214.402344 56.449219 C 213.871094 55.917969 213.398438 55.335938 212.980469 54.710938 C 212.5625 54.085938 212.207031 53.425781 211.921875 52.730469 C 211.632812 52.03125 211.414062 51.316406 211.269531 50.578125 C 211.125 49.839844 211.050781 49.09375 211.050781 48.339844 C 211.050781 47.589844 211.125 46.84375 211.269531 46.105469 C 211.414062 45.367188 211.632812 44.652344 211.921875 43.953125 C 212.207031 43.257812 212.5625 42.59375 212.980469 41.96875 C 213.398438 41.34375 213.871094 40.765625 214.402344 40.234375 C 214.933594 39.703125 215.511719 39.226562 216.136719 38.808594 C 216.761719 38.390625 217.421875 38.035156 218.117188 37.746094 C 218.8125 37.460938 219.523438 37.242188 220.261719 37.097656 C 221.003906 36.949219 221.746094 36.875 222.496094 36.875 C 223.25 36.875 223.992188 36.949219 224.730469 37.097656 C 225.46875 37.242188 226.183594 37.460938 226.878906 37.746094 C 227.570312 38.035156 228.234375 38.390625 228.855469 38.808594 C 229.480469 39.226562 230.058594 39.703125 230.59375 40.234375 C 231.125 40.765625 231.597656 41.34375 232.011719 41.96875 C 232.433594 42.59375 232.785156 43.257812 233.074219 43.953125 C 233.363281 44.652344 233.578125 45.367188 233.722656 46.105469 C 233.871094 46.84375 233.945312 47.589844 233.945312 48.339844 Z M 233.945312 48.339844 " fill-opacity="1" fill-rule="nonzero"/><path fill="#000000" d="M 222.496094 60.03125 C 221.734375 60.03125 220.972656 59.953125 220.222656 59.804688 C 219.472656 59.652344 218.742188 59.433594 218.035156 59.140625 C 217.328125 58.847656 216.652344 58.488281 216.015625 58.0625 C 215.382812 57.636719 214.792969 57.148438 214.25 56.609375 C 213.710938 56.066406 213.226562 55.472656 212.800781 54.839844 C 212.375 54.199219 212.015625 53.527344 211.722656 52.816406 C 211.429688 52.109375 211.210938 51.378906 211.058594 50.625 C 210.910156 49.875 210.835938 49.117188 210.835938 48.347656 C 210.835938 47.582031 210.910156 46.820312 211.058594 46.070312 C 211.210938 45.316406 211.429688 44.585938 211.722656 43.875 C 212.015625 43.167969 212.375 42.496094 212.800781 41.859375 C 213.226562 41.21875 213.710938 40.628906 214.25 40.089844 C 214.792969 39.546875 215.382812 39.0625 216.015625 38.636719 C 216.652344 38.210938 217.328125 37.847656 218.035156 37.554688 C 218.742188 37.261719 219.472656 37.039062 220.222656 36.890625 C 220.972656 36.738281 221.734375 36.667969 222.496094 36.667969 C 223.261719 36.667969 224.019531 36.738281 224.773438 36.890625 C 225.523438 37.039062 226.25 37.261719 226.960938 37.554688 C 227.667969 37.847656 228.339844 38.210938 228.976562 38.636719 C 229.613281 39.0625 230.199219 39.546875 230.742188 40.089844 C 231.285156 40.628906 231.769531 41.21875 232.191406 41.859375 C 232.617188 42.496094 232.980469 43.167969 233.273438 43.875 C 233.5625 44.585938 233.785156 45.316406 233.9375 46.070312 C 234.085938 46.820312 234.15625 47.582031 234.15625 48.347656 C 234.15625 49.117188 234.085938 49.875 233.9375 50.625 C 233.785156 51.378906 233.5625 52.109375 233.273438 52.816406 C 232.980469 53.527344 232.617188 54.199219 232.191406 54.839844 C 231.769531 55.472656 231.285156 56.066406 230.742188 56.609375 C 230.199219 57.148438 229.613281 57.636719 228.976562 58.0625 C 228.339844 58.488281 227.667969 58.847656 226.960938 59.140625 C 226.25 59.433594 225.523438 59.652344 224.773438 59.804688 C 224.019531 59.953125 223.261719 60.03125 222.496094 60.03125 Z M 222.496094 37.109375 C 221.757812 37.109375 221.03125 37.183594 220.308594 37.324219 C 219.589844 37.46875 218.882812 37.679688 218.203125 37.964844 C 217.527344 38.246094 216.878906 38.59375 216.265625 39 C 215.65625 39.410156 215.085938 39.875 214.566406 40.398438 C 214.046875 40.917969 213.582031 41.488281 213.171875 42.101562 C 212.761719 42.714844 212.417969 43.359375 212.136719 44.042969 C 211.855469 44.722656 211.640625 45.425781 211.5 46.148438 C 211.355469 46.875 211.28125 47.601562 211.28125 48.339844 C 211.28125 49.078125 211.355469 49.8125 211.5 50.53125 C 211.640625 51.257812 211.855469 51.960938 212.136719 52.640625 C 212.417969 53.324219 212.761719 53.96875 213.171875 54.582031 C 213.582031 55.195312 214.046875 55.761719 214.566406 56.285156 C 215.085938 56.808594 215.65625 57.273438 216.265625 57.683594 C 216.878906 58.089844 217.527344 58.4375 218.203125 58.71875 C 218.882812 59.003906 219.589844 59.214844 220.308594 59.359375 C 221.03125 59.5 221.757812 59.574219 222.496094 59.574219 C 223.234375 59.574219 223.964844 59.5 224.683594 59.359375 C 225.40625 59.214844 226.109375 59.003906 226.789062 58.71875 C 227.46875 58.4375 228.117188 58.089844 228.726562 57.683594 C 229.339844 57.273438 229.90625 56.808594 230.425781 56.285156 C 230.949219 55.761719 231.414062 55.195312 231.820312 54.582031 C 232.230469 53.96875 232.574219 53.324219 232.855469 52.640625 C 233.140625 51.960938 233.351562 51.257812 233.496094 50.53125 C 233.640625 49.8125 233.710938 49.078125 233.710938 48.339844 C 233.710938 47.601562 233.636719 46.875 233.496094 46.148438 C 233.347656 45.429688 233.136719 44.726562 232.855469 44.046875 C 232.570312 43.363281 232.226562 42.71875 231.816406 42.105469 C 231.410156 41.492188 230.941406 40.925781 230.421875 40.40625 C 229.902344 39.882812 229.335938 39.417969 228.722656 39.007812 C 228.113281 38.597656 227.464844 38.253906 226.785156 37.96875 C 226.105469 37.6875 225.40625 37.476562 224.683594 37.332031 C 223.960938 37.1875 223.234375 37.117188 222.496094 37.117188 Z M 222.496094 37.109375 " fill-opacity="1" fill-rule="nonzero"/><path fill="#8b0000" d="M 222.367188 45.105469 L 226.289062 43.042969 L 225.539062 47.414062 L 228.707031 50.484375 L 224.332031 51.101562 L 222.367188 55.117188 L 220.410156 51.136719 L 216.027344 50.523438 L 219.199219 47.449219 L 218.453125 43.078125 Z M 222.367188 45.105469 " fill-opacity="1" fill-rule="nonzero"/><path fill="#ffdfd1" d="M 221.007812 108.390625 L 214.253906 111.332031 C 213.863281 111.496094 213.453125 111.582031 213.027344 111.589844 C 212.46875 111.589844 211.945312 111.449219 211.460938 111.171875 C 210.976562 110.890625 210.59375 110.511719 210.3125 110.027344 L 202.84375 97.230469 C 202.085938 97.152344 201.347656 96.980469 200.625 96.730469 C 199.09375 96.21875 198.304688 94.550781 198.210938 94.335938 C 198.125 94.183594 198.074219 94.015625 198.050781 93.839844 C 198.03125 93.667969 198.039062 93.492188 198.085938 93.320312 C 198.128906 93.152344 198.203125 92.992188 198.304688 92.847656 C 198.410156 92.707031 198.53125 92.585938 198.679688 92.492188 C 198.683594 91.882812 198.933594 91.398438 199.425781 91.039062 C 199.457031 90.738281 199.558594 90.460938 199.730469 90.210938 C 199.902344 89.960938 200.125 89.765625 200.394531 89.625 C 199.804688 89.203125 199.179688 88.828125 198.523438 88.511719 C 196.273438 87.390625 197.121094 85.527344 197.128906 85.507812 L 197.277344 85.207031 L 201.265625 87.050781 L 204.445312 89.402344 L 213.039062 102.746094 L 217.703125 100.75 Z M 221.007812 108.390625 " fill-opacity="1" fill-rule="nonzero"/><path fill="#ffffff" d="M 247.839844 129.761719 L 244.214844 155.160156 L 243.550781 206.84375 L 231.683594 206.84375 L 232.507812 155.324219 L 235.3125 128.582031 Z M 247.839844 129.761719 " fill-opacity="1" fill-rule="nonzero"/><path fill="#000000" d="M 243.550781 207.09375 L 231.683594 207.09375 C 231.621094 207.09375 231.566406 207.070312 231.519531 207.023438 C 231.476562 206.980469 231.453125 206.925781 231.453125 206.863281 L 232.277344 155.34375 L 235.082031 128.582031 C 235.085938 128.519531 235.109375 128.464844 235.160156 128.425781 C 235.210938 128.382812 235.265625 128.363281 235.328125 128.371094 L 247.859375 129.527344 C 247.925781 129.535156 247.976562 129.5625 248.015625 129.617188 C 248.058594 129.667969 248.074219 129.726562 248.066406 129.792969 L 244.464844 155.214844 L 243.808594 206.863281 C 243.8125 206.933594 243.785156 206.988281 243.730469 207.039062 C 243.683594 207.085938 243.617188 207.105469 243.550781 207.09375 Z M 231.917969 206.632812 L 243.324219 206.632812 L 243.980469 155.160156 L 247.574219 129.953125 L 235.515625 128.839844 L 232.734375 155.363281 Z M 231.917969 206.632812 " fill-opacity="1" fill-rule="nonzero"/><path fill="#ffffff" d="M 244.292969 128.519531 L 235.3125 155.683594 L 251.625 191.675781 L 243.035156 198.277344 L 223.328125 158.316406 C 222.398438 156.433594 222.078125 154.453125 222.375 152.375 L 225.890625 127.425781 Z M 244.292969 128.519531 " fill-opacity="1" fill-rule="nonzero"/><path fill="#000000" d="M 243.058594 198.511719 L 243.003906 198.511719 C 242.933594 198.492188 242.882812 198.453125 242.847656 198.390625 L 223.148438 158.425781 C 222.195312 156.503906 221.867188 154.480469 222.171875 152.355469 L 225.691406 127.402344 C 225.707031 127.261719 225.785156 127.195312 225.929688 127.203125 L 244.304688 128.28125 C 244.378906 128.285156 244.4375 128.320312 244.480469 128.382812 C 244.523438 128.441406 244.535156 128.507812 244.515625 128.582031 L 235.558594 155.632812 L 251.832031 191.578125 C 251.886719 191.691406 251.863281 191.78125 251.761719 191.859375 L 243.171875 198.464844 C 243.136719 198.488281 243.101562 198.503906 243.058594 198.511719 Z M 226.113281 127.691406 L 222.625 152.429688 C 222.335938 154.460938 222.648438 156.394531 223.558594 158.234375 L 243.136719 197.925781 L 251.34375 191.601562 L 235.097656 155.773438 C 235.078125 155.722656 235.078125 155.664062 235.097656 155.609375 L 243.980469 128.722656 Z M 226.113281 127.691406 " fill-opacity="1" fill-rule="nonzero"/><path fill="#ffdfd1" d="M 242.789062 90.457031 L 243.019531 100.402344 L 234.828125 99.789062 L 235.441406 91.683594 C 234.605469 91.753906 232.761719 91.742188 231.519531 90.363281 C 230.066406 88.753906 229.964844 85.859375 231.230469 81.757812 C 231.972656 79.34375 233.203125 77.871094 234.871094 77.394531 C 238.0625 76.476562 241.671875 79.5 241.941406 79.726562 C 242.210938 79.957031 243.78125 81.585938 242.789062 90.457031 Z M 242.789062 90.457031 " fill-opacity="1" fill-rule="nonzero"/><path fill="#8b0000" d="M 255.253906 118.425781 C 255.195312 118.832031 254.738281 119.371094 251.878906 120.339844 C 250.726562 120.730469 249.578125 121.050781 249.078125 121.1875 L 248.992188 134.097656 L 248.535156 133.902344 C 248.484375 133.902344 243.621094 131.925781 235.328125 134.445312 C 234.523438 134.691406 233.707031 134.8125 232.871094 134.808594 C 228.285156 134.808594 224.699219 131.175781 224.519531 130.992188 L 224.417969 130.882812 L 226.050781 112.121094 L 225.683594 108.222656 L 219.113281 110.738281 L 215.078125 100.71875 L 228.824219 94.855469 C 229.863281 94.414062 230.941406 94.257812 232.058594 94.390625 L 242.230469 95.558594 C 243.601562 95.714844 244.789062 96.269531 245.789062 97.21875 C 254.316406 105.363281 255.40625 117.535156 255.253906 118.425781 Z M 255.253906 118.425781 " fill-opacity="1" fill-rule="nonzero"/><path fill="#ffffff" d="M 232.125 74.902344 C 238.6875 70.929688 244.464844 77.835938 244.464844 77.835938 C 247.453125 80.292969 245.246094 86.441406 243.308594 88.070312 C 243.019531 88.238281 242.710938 88.363281 242.390625 88.460938 C 241.835938 88.378906 241.335938 88.171875 240.882812 87.839844 C 240.433594 87.507812 240.085938 87.089844 239.847656 86.585938 C 240.179688 85.261719 239.847656 84.285156 239.515625 83.949219 C 237.523438 82.007812 236.71875 84.933594 236.71875 84.933594 L 235.566406 84.933594 L 235.398438 81.960938 C 229.625 79.488281 230.464844 75.910156 232.125 74.902344 Z M 232.125 74.902344 " fill-opacity="1" fill-rule="nonzero"/><path fill="#000000" d="M 242.382812 88.691406 L 242.355469 88.691406 C 241.761719 88.609375 241.21875 88.390625 240.738281 88.03125 C 240.253906 87.671875 239.886719 87.222656 239.636719 86.675781 C 239.617188 86.628906 239.617188 86.578125 239.636719 86.527344 C 239.949219 85.261719 239.636719 84.371094 239.363281 84.109375 C 238.867188 83.625 238.421875 83.433594 238.046875 83.539062 C 237.300781 83.746094 236.953125 84.984375 236.945312 85 C 236.914062 85.109375 236.839844 85.160156 236.722656 85.164062 L 235.574219 85.164062 C 235.425781 85.164062 235.351562 85.089844 235.335938 84.949219 L 235.183594 82.117188 C 231.445312 80.472656 230.757812 78.480469 230.6875 77.429688 C 230.640625 76.886719 230.730469 76.371094 230.976562 75.878906 C 231.214844 75.390625 231.558594 75 232.015625 74.703125 C 238.675781 70.648438 244.589844 77.621094 244.648438 77.6875 C 245.171875 78.160156 245.566406 78.730469 245.832031 79.386719 C 246.097656 80.042969 246.207031 80.726562 246.164062 81.429688 C 246.164062 84.125 244.746094 87.1875 243.464844 88.25 C 243.152344 88.4375 242.816406 88.582031 242.464844 88.679688 Z M 240.085938 86.558594 C 240.308594 87.003906 240.621094 87.375 241.023438 87.667969 C 241.421875 87.960938 241.871094 88.148438 242.359375 88.222656 C 242.640625 88.148438 242.90625 88.039062 243.15625 87.894531 C 244.386719 86.898438 245.695312 84 245.695312 81.4375 C 245.726562 80.792969 245.625 80.171875 245.386719 79.570312 C 245.144531 78.972656 244.785156 78.449219 244.308594 78.011719 C 243.25 76.820312 242.023438 75.835938 240.628906 75.0625 C 237.699219 73.476562 234.882812 73.488281 232.238281 75.097656 C 231.855469 75.347656 231.5625 75.679688 231.363281 76.089844 C 231.164062 76.503906 231.085938 76.933594 231.128906 77.390625 C 231.195312 78.351562 231.851562 80.195312 235.480469 81.75 C 235.566406 81.785156 235.613281 81.851562 235.613281 81.949219 L 235.769531 84.703125 L 236.542969 84.703125 C 236.675781 84.304688 237.097656 83.3125 237.902344 83.097656 C 238.238281 83.039062 238.5625 83.074219 238.878906 83.195312 C 239.195312 83.320312 239.457031 83.511719 239.664062 83.78125 C 240.09375 84.1875 240.394531 85.222656 240.085938 86.558594 Z M 240.085938 86.558594 " fill-opacity="1" fill-rule="nonzero"/><path fill="#000000" d="M 213.660156 208.914062 L 123.730469 208.914062 C 123.667969 208.914062 123.617188 208.890625 123.570312 208.84375 C 123.527344 208.796875 123.503906 208.746094 123.503906 208.679688 L 123.503906 162.339844 C 123.507812 162.195312 123.585938 162.117188 123.730469 162.117188 L 213.660156 162.117188 C 213.722656 162.117188 213.777344 162.136719 213.820312 162.179688 C 213.867188 162.226562 213.886719 162.277344 213.890625 162.339844 L 213.890625 208.679688 C 213.890625 208.746094 213.867188 208.800781 213.820312 208.847656 C 213.777344 208.890625 213.722656 208.914062 213.660156 208.914062 Z M 123.964844 208.453125 L 213.429688 208.453125 L 213.429688 162.574219 L 123.964844 162.574219 Z M 213.660156 159.5625 L 123.730469 159.5625 C 123.667969 159.5625 123.617188 159.539062 123.570312 159.492188 C 123.527344 159.445312 123.503906 159.390625 123.503906 159.328125 L 123.503906 151.644531 C 123.503906 151.582031 123.527344 151.523438 123.570312 151.480469 C 123.617188 151.433594 123.667969 151.410156 123.730469 151.410156 L 213.660156 151.410156 C 213.722656 151.410156 213.777344 151.433594 213.820312 151.476562 C 213.867188 151.523438 213.890625 151.578125 213.890625 151.644531 L 213.890625 159.328125 C 213.890625 159.390625 213.867188 159.449219 213.820312 159.496094 C 213.777344 159.539062 213.722656 159.5625 213.660156 159.5625 Z M 123.964844 159.101562 L 213.429688 159.101562 L 213.429688 151.871094 L 123.964844 151.871094 Z M 123.964844 159.101562 " fill-opacity="1" fill-rule="nonzero"/><path fill="#8b0000" d="M 141.851562 155.484375 C 141.851562 155.679688 141.8125 155.871094 141.742188 156.050781 C 141.664062 156.234375 141.558594 156.394531 141.417969 156.527344 C 141.28125 156.667969 141.121094 156.773438 140.941406 156.847656 C 140.761719 156.925781 140.570312 156.960938 140.378906 156.960938 C 140.183594 156.960938 139.996094 156.925781 139.816406 156.847656 C 139.632812 156.773438 139.472656 156.667969 139.335938 156.527344 C 139.199219 156.394531 139.089844 156.234375 139.019531 156.050781 C 138.941406 155.871094 138.90625 155.679688 138.90625 155.484375 C 138.90625 155.292969 138.941406 155.101562 139.019531 154.921875 C 139.089844 154.742188 139.199219 154.582031 139.335938 154.445312 C 139.472656 154.304688 139.632812 154.199219 139.816406 154.121094 C 139.996094 154.046875 140.183594 154.011719 140.378906 154.011719 C 140.570312 154.011719 140.761719 154.046875 140.941406 154.121094 C 141.121094 154.199219 141.28125 154.304688 141.417969 154.445312 C 141.558594 154.582031 141.664062 154.742188 141.742188 154.921875 C 141.8125 155.101562 141.851562 155.292969 141.851562 155.484375 Z M 134.34375 154.011719 C 134.148438 154.007812 133.960938 154.046875 133.78125 154.121094 C 133.597656 154.195312 133.4375 154.300781 133.296875 154.4375 C 133.164062 154.578125 133.054688 154.738281 132.980469 154.917969 C 132.902344 155.097656 132.867188 155.285156 132.863281 155.480469 C 132.863281 155.679688 132.898438 155.867188 132.976562 156.046875 C 133.050781 156.230469 133.15625 156.390625 133.296875 156.527344 C 133.429688 156.664062 133.589844 156.773438 133.773438 156.847656 C 133.953125 156.925781 134.140625 156.960938 134.335938 156.960938 C 134.53125 156.960938 134.71875 156.925781 134.902344 156.851562 C 135.082031 156.773438 135.242188 156.667969 135.378906 156.527344 C 135.515625 156.394531 135.625 156.234375 135.699219 156.050781 C 135.773438 155.871094 135.8125 155.679688 135.8125 155.484375 C 135.8125 155.292969 135.773438 155.101562 135.699219 154.921875 C 135.625 154.742188 135.519531 154.585938 135.382812 154.445312 C 135.242188 154.308594 135.085938 154.203125 134.90625 154.125 C 134.726562 154.046875 134.539062 154.011719 134.34375 154.011719 Z M 128.304688 154.011719 C 128.109375 154.011719 127.921875 154.046875 127.742188 154.121094 C 127.558594 154.199219 127.398438 154.304688 127.261719 154.445312 C 127.125 154.582031 127.019531 154.742188 126.945312 154.921875 C 126.867188 155.101562 126.832031 155.292969 126.832031 155.484375 C 126.832031 155.679688 126.867188 155.871094 126.945312 156.050781 C 127.019531 156.234375 127.125 156.394531 127.261719 156.527344 C 127.398438 156.667969 127.558594 156.773438 127.742188 156.847656 C 127.921875 156.925781 128.109375 156.960938 128.304688 156.960938 C 128.5 156.960938 128.6875 156.925781 128.867188 156.847656 C 129.050781 156.773438 129.207031 156.667969 129.34375 156.527344 C 129.484375 156.394531 129.589844 156.234375 129.667969 156.050781 C 129.738281 155.871094 129.777344 155.679688 129.777344 155.484375 C 129.777344 155.292969 129.738281 155.101562 129.667969 154.921875 C 129.589844 154.742188 129.484375 154.582031 129.34375 154.445312 C 129.207031 154.304688 129.050781 154.199219 128.867188 154.121094 C 128.6875 154.046875 128.5 154.011719 128.304688 154.011719 Z M 128.304688 154.011719 " fill-opacity="1" fill-rule="nonzero"/><path fill="#ffffff" d="M 27.035156 99.824219 L 28.925781 92.726562 C 28.347656 92.328125 26 89.773438 26.007812 88.519531 C 26.007812 87.90625 27.507812 87.90625 28.242188 87.460938 L 28.324219 87.417969 L 28.410156 87.417969 C 28.769531 87.433594 29.109375 87.511719 29.433594 87.660156 C 29.363281 86.71875 29.582031 85.859375 30.097656 85.070312 C 30.492188 84.578125 31.9375 84.917969 31.726562 84.261719 C 30.808594 81.503906 35.082031 82.710938 35.125 82.652344 L 35.40625 82.242188 L 35.675781 82.667969 C 35.855469 82.941406 39.976562 89.566406 39.203125 92.539062 C 39.070312 93.09375 38.75 93.503906 38.25 93.769531 C 37.367188 94.320312 36.410156 94.664062 35.378906 94.804688 L 35.328125 94.804688 L 36.09375 100.183594 Z M 27.035156 99.824219 " fill-opacity="1" fill-rule="nonzero"/><path fill="#000000" d="M 36.09375 100.441406 L 27.035156 100.089844 C 26.960938 100.085938 26.902344 100.054688 26.855469 99.996094 C 26.8125 99.9375 26.800781 99.875 26.820312 99.800781 L 28.660156 92.84375 C 27.90625 92.226562 25.761719 89.84375 25.785156 88.539062 C 25.785156 87.96875 26.46875 87.792969 27.132812 87.621094 C 27.480469 87.554688 27.8125 87.441406 28.128906 87.285156 L 28.207031 87.242188 C 28.246094 87.230469 28.285156 87.230469 28.324219 87.242188 L 28.410156 87.242188 C 28.679688 87.246094 28.945312 87.289062 29.210938 87.367188 C 29.179688 86.492188 29.414062 85.6875 29.914062 84.960938 C 30.210938 84.6875 30.5625 84.550781 30.96875 84.550781 C 31.160156 84.535156 31.34375 84.492188 31.515625 84.414062 C 31.386719 84.148438 31.332031 83.871094 31.355469 83.578125 C 31.375 83.285156 31.472656 83.015625 31.644531 82.777344 C 32.363281 81.949219 34.222656 82.292969 34.929688 82.421875 L 35.007812 82.421875 L 35.21875 82.125 C 35.265625 82.058594 35.328125 82.027344 35.40625 82.027344 C 35.488281 82.027344 35.554688 82.066406 35.597656 82.132812 L 35.863281 82.558594 C 36.042969 82.839844 40.238281 89.539062 39.417969 92.617188 C 39.269531 93.238281 38.914062 93.699219 38.347656 94 C 37.488281 94.511719 36.570312 94.863281 35.585938 95.050781 L 36.316406 100.175781 C 36.328125 100.246094 36.3125 100.3125 36.261719 100.359375 C 36.21875 100.414062 36.160156 100.441406 36.09375 100.441406 Z M 27.332031 99.640625 L 35.832031 99.96875 L 35.101562 94.847656 C 35.089844 94.773438 35.113281 94.714844 35.160156 94.660156 C 35.207031 94.605469 35.265625 94.578125 35.339844 94.582031 C 36.34375 94.449219 37.277344 94.117188 38.140625 93.582031 C 38.585938 93.339844 38.867188 92.976562 38.980469 92.480469 C 39.59375 90.175781 36.960938 85.101562 35.480469 82.789062 L 35.398438 82.660156 L 35.3125 82.785156 C 35.222656 82.914062 35.117188 82.894531 34.847656 82.847656 C 34.277344 82.742188 32.546875 82.414062 31.996094 83.050781 C 31.765625 83.417969 31.75 83.796875 31.945312 84.1875 C 32.003906 84.335938 31.996094 84.484375 31.90625 84.621094 C 31.761719 84.867188 31.410156 84.917969 31.042969 84.972656 C 30.675781 85.027344 30.398438 85.066406 30.273438 85.21875 C 29.789062 85.96875 29.585938 86.789062 29.660156 87.679688 C 29.664062 87.761719 29.628906 87.828125 29.558594 87.875 C 29.480469 87.921875 29.40625 87.921875 29.332031 87.875 C 29.035156 87.738281 28.726562 87.667969 28.402344 87.660156 L 28.347656 87.660156 C 27.996094 87.839844 27.621094 87.972656 27.230469 88.046875 C 26.765625 88.171875 26.230469 88.304688 26.230469 88.519531 C 26.230469 89.648438 28.480469 92.148438 29.042969 92.53125 C 29.132812 92.589844 29.164062 92.675781 29.132812 92.78125 Z M 27.332031 99.640625 " fill-opacity="1" fill-rule="nonzero"/><path fill="#8b0000" d="M 36.113281 97.367188 L 41.636719 98.566406 C 42.644531 98.789062 43.535156 99.238281 44.3125 99.910156 C 45.09375 100.585938 45.660156 101.40625 46.027344 102.371094 L 49.351562 111.25 L 46.128906 123.675781 L 46.289062 128.679688 L 47.71875 138.695312 L 22.125 143.546875 L 20.898438 117.109375 L 18.589844 114.828125 L 16.941406 109.511719 C 16.714844 108.871094 16.605469 108.222656 16.605469 107.546875 C 16.609375 106.871094 16.722656 106.214844 16.945312 105.585938 C 17.171875 104.949219 17.5 104.371094 17.925781 103.847656 C 18.351562 103.324219 18.847656 102.886719 19.421875 102.539062 L 27.859375 97.367188 C 32.933594 101.996094 36.113281 97.367188 36.113281 97.367188 Z M 36.113281 97.367188 " fill-opacity="1" fill-rule="nonzero"/><path fill="#ffffff" d="M 18.496094 114.582031 C 20.902344 113.5 24.15625 111.925781 24.539062 111.699219 L 25.515625 111.171875 L 28.003906 118.269531 L 37.503906 97.738281 C 37.410156 97.296875 37.21875 96.902344 36.941406 96.546875 C 36.664062 96.195312 36.324219 95.914062 35.921875 95.710938 L 32.195312 94.035156 L 32.664062 93.695312 C 33.785156 92.898438 35.839844 93.113281 36.1875 93.15625 C 37.164062 93 39.113281 91.558594 39.789062 91.011719 L 39.949219 90.878906 L 40.132812 90.96875 C 42 91.835938 42.527344 96.753906 42.527344 97.273438 L 42.527344 97.367188 L 32.449219 126.976562 C 32.316406 127.378906 32.128906 127.753906 31.886719 128.097656 C 31.640625 128.441406 31.347656 128.742188 31.011719 129 C 30.675781 129.257812 30.3125 129.460938 29.914062 129.601562 C 29.519531 129.75 29.109375 129.832031 28.683594 129.855469 L 28.410156 129.855469 C 28.011719 129.859375 27.617188 129.804688 27.234375 129.695312 C 26.851562 129.585938 26.492188 129.425781 26.152344 129.214844 C 25.816406 129 25.515625 128.742188 25.25 128.441406 C 24.988281 128.140625 24.769531 127.8125 24.597656 127.449219 Z M 18.496094 114.582031 " fill-opacity="1" fill-rule="nonzero"/><path fill="#000000" d="M 28.410156 130.085938 C 27.992188 130.089844 27.578125 130.035156 27.175781 129.917969 C 26.769531 129.800781 26.390625 129.632812 26.035156 129.410156 C 25.675781 129.183594 25.363281 128.914062 25.082031 128.597656 C 24.804688 128.285156 24.574219 127.9375 24.394531 127.554688 L 18.257812 114.699219 C 18.234375 114.640625 18.234375 114.578125 18.257812 114.523438 C 18.28125 114.460938 18.324219 114.414062 18.378906 114.386719 C 20.835938 113.292969 24.039062 111.730469 24.394531 111.519531 L 25.378906 110.984375 C 25.441406 110.949219 25.503906 110.949219 25.570312 110.972656 C 25.636719 110.996094 25.683594 111.039062 25.710938 111.109375 L 28.035156 117.65625 L 37.242188 97.742188 C 37.046875 96.929688 36.574219 96.332031 35.832031 95.953125 L 32.09375 94.246094 C 32.007812 94.207031 31.964844 94.144531 31.957031 94.050781 C 31.949219 93.964844 31.976562 93.894531 32.050781 93.84375 L 32.515625 93.515625 C 33.675781 92.683594 35.6875 92.898438 36.167969 92.898438 C 37.011719 92.742188 38.726562 91.539062 39.628906 90.808594 L 39.789062 90.675781 C 39.867188 90.628906 39.949219 90.628906 40.027344 90.675781 L 40.21875 90.757812 C 42.164062 91.648438 42.671875 96.328125 42.765625 97.261719 L 42.765625 97.332031 C 42.773438 97.363281 42.773438 97.398438 42.765625 97.425781 L 32.667969 127.050781 C 32.527344 127.472656 32.328125 127.871094 32.074219 128.230469 C 31.816406 128.59375 31.507812 128.914062 31.15625 129.183594 C 30.800781 129.453125 30.410156 129.664062 29.992188 129.816406 C 29.574219 129.972656 29.144531 130.0625 28.699219 130.082031 Z M 18.804688 114.71875 L 24.808594 127.363281 C 24.984375 127.722656 25.207031 128.050781 25.476562 128.339844 C 25.75 128.632812 26.058594 128.882812 26.402344 129.082031 C 26.746094 129.28125 27.113281 129.429688 27.503906 129.523438 C 27.890625 129.613281 28.285156 129.644531 28.683594 129.617188 C 29.082031 129.59375 29.46875 129.507812 29.839844 129.371094 C 30.214844 129.226562 30.558594 129.035156 30.875 128.789062 C 31.191406 128.546875 31.464844 128.261719 31.695312 127.9375 C 31.929688 127.609375 32.105469 127.257812 32.234375 126.878906 L 42.316406 97.292969 C 42.140625 95.328125 41.457031 91.820312 40.042969 91.175781 L 39.980469 91.175781 L 39.9375 91.214844 C 39.9375 91.214844 37.480469 93.210938 36.222656 93.40625 L 36.15625 93.40625 C 35.929688 93.40625 33.867188 93.144531 32.796875 93.914062 L 32.660156 94.007812 L 36.015625 95.523438 C 36.445312 95.734375 36.8125 96.035156 37.113281 96.414062 C 37.410156 96.792969 37.613281 97.214844 37.71875 97.6875 C 37.742188 97.742188 37.742188 97.796875 37.71875 97.851562 L 28.214844 118.339844 C 28.171875 118.425781 28.097656 118.46875 27.996094 118.46875 C 27.894531 118.464844 27.824219 118.414062 27.792969 118.3125 L 25.390625 111.550781 L 24.648438 111.953125 C 24.265625 112.121094 21.164062 113.640625 18.808594 114.710938 Z M 18.804688 114.71875 " fill-opacity="1" fill-rule="nonzero"/><path fill="#ffffff" d="M 25.082031 127.414062 L 25.164062 127.136719 L 28.566406 127.648438 L 31.308594 127.03125 L 44.683594 119.558594 L 42.398438 112.234375 L 49.148438 110.5625 L 52.421875 120.578125 C 52.503906 120.839844 52.554688 121.105469 52.585938 121.382812 C 52.613281 121.65625 52.613281 121.925781 52.589844 122.199219 C 52.5625 122.472656 52.511719 122.742188 52.433594 123.007812 C 52.355469 123.269531 52.253906 123.523438 52.128906 123.765625 C 52 124.011719 51.851562 124.238281 51.679688 124.453125 C 51.511719 124.667969 51.316406 124.863281 51.109375 125.039062 C 50.898438 125.21875 50.671875 125.371094 50.433594 125.507812 C 50.195312 125.640625 49.945312 125.75 49.683594 125.835938 L 33.46875 131.179688 C 32.0625 131.9375 30.566406 132.347656 28.972656 132.410156 L 28.574219 132.410156 C 28.347656 132.441406 28.128906 132.433594 27.902344 132.386719 C 27.679688 132.34375 27.46875 132.265625 27.269531 132.148438 C 27.074219 132.035156 26.902344 131.894531 26.753906 131.71875 C 26.601562 131.546875 26.484375 131.359375 26.398438 131.144531 C 25.941406 130.980469 25.589844 130.6875 25.34375 130.273438 C 25.1875 129.992188 25.144531 129.695312 25.207031 129.382812 C 24.914062 128.742188 24.871094 128.085938 25.082031 127.414062 Z M 25.082031 127.414062 " fill-opacity="1" fill-rule="nonzero"/><path fill="#000000" d="M 28.972656 132.609375 C 28.839844 132.609375 28.699219 132.609375 28.566406 132.609375 C 28.324219 132.636719 28.082031 132.628906 27.847656 132.582031 C 27.609375 132.535156 27.386719 132.453125 27.175781 132.332031 C 26.964844 132.214844 26.777344 132.066406 26.613281 131.886719 C 26.449219 131.707031 26.316406 131.507812 26.21875 131.289062 C 25.761719 131.113281 25.402344 130.8125 25.144531 130.398438 C 24.96875 130.09375 24.910156 129.769531 24.964844 129.425781 C 24.679688 128.75 24.648438 128.0625 24.863281 127.363281 L 24.945312 127.082031 C 24.976562 126.953125 25.0625 126.898438 25.191406 126.921875 L 28.550781 127.425781 L 31.226562 126.8125 L 44.414062 119.433594 L 42.179688 112.289062 C 42.152344 112.226562 42.152344 112.171875 42.179688 112.113281 C 42.210938 112.050781 42.257812 112.011719 42.324219 111.996094 L 49.046875 110.324219 C 49.183594 110.292969 49.277344 110.34375 49.324219 110.476562 L 52.59375 120.492188 C 52.679688 120.765625 52.730469 121.050781 52.761719 121.339844 C 52.792969 121.625 52.792969 121.914062 52.765625 122.199219 C 52.738281 122.488281 52.683594 122.773438 52.601562 123.046875 C 52.519531 123.328125 52.410156 123.59375 52.277344 123.847656 C 52.144531 124.105469 51.984375 124.347656 51.804688 124.570312 C 51.625 124.796875 51.425781 125.003906 51.203125 125.191406 C 50.984375 125.375 50.746094 125.539062 50.496094 125.679688 C 50.242188 125.820312 49.976562 125.933594 49.699219 126.023438 L 33.535156 131.367188 C 32.113281 132.140625 30.59375 132.554688 28.972656 132.609375 Z M 28.558594 132.140625 L 28.972656 132.140625 C 30.527344 132.074219 31.988281 131.671875 33.359375 130.941406 L 49.578125 125.605469 C 49.828125 125.523438 50.0625 125.425781 50.289062 125.300781 C 50.519531 125.171875 50.730469 125.027344 50.929688 124.855469 C 51.125 124.691406 51.308594 124.507812 51.46875 124.304688 C 51.628906 124.101562 51.773438 123.886719 51.890625 123.652344 C 52.011719 123.425781 52.109375 123.183594 52.179688 122.933594 C 52.253906 122.6875 52.304688 122.433594 52.328125 122.171875 C 52.351562 121.914062 52.351562 121.65625 52.324219 121.398438 C 52.296875 121.140625 52.246094 120.886719 52.171875 120.636719 L 48.96875 110.800781 L 42.6875 112.363281 L 44.90625 119.5 C 44.941406 119.621094 44.90625 119.710938 44.796875 119.773438 L 31.421875 127.234375 L 31.363281 127.234375 L 28.613281 127.851562 C 28.585938 127.855469 28.554688 127.855469 28.523438 127.851562 L 25.34375 127.394531 L 25.34375 127.480469 C 25.144531 128.097656 25.179688 128.695312 25.453125 129.277344 C 25.464844 129.324219 25.464844 129.375 25.453125 129.425781 C 25.398438 129.683594 25.433594 129.925781 25.5625 130.15625 C 25.792969 130.507812 26.105469 130.75 26.5 130.890625 C 26.566406 130.914062 26.613281 130.960938 26.636719 131.027344 C 26.796875 131.40625 27.054688 131.699219 27.410156 131.90625 C 27.765625 132.113281 28.148438 132.191406 28.558594 132.140625 Z M 25.082031 127.414062 Z M 25.082031 127.414062 " fill-opacity="1" fill-rule="nonzero"/><path fill="#000000" d="M 36.636719 83.738281 C 36.679688 83.828125 36.800781 84.027344 36.636719 84.058594 C 36.46875 84.085938 36.410156 83.878906 36.351562 83.816406 C 36.117188 83.546875 35.820312 83.363281 35.472656 83.269531 C 35.054688 83.132812 34.625 83.054688 34.183594 83.042969 C 34.03125 83.039062 33.882812 83.0625 33.738281 83.113281 C 33.589844 83.164062 33.457031 83.238281 33.34375 83.335938 C 33.222656 83.433594 33.125 83.550781 33.050781 83.6875 C 32.976562 83.820312 32.925781 83.964844 32.902344 84.117188 C 32.871094 84.296875 32.835938 84.460938 32.816406 84.558594 C 32.710938 85.132812 32.636719 85.714844 32.542969 86.289062 C 32.453125 86.992188 32.238281 87.660156 31.898438 88.28125 C 31.625 88.722656 31.214844 89.191406 30.667969 89.074219 C 29.71875 88.871094 29.011719 87.277344 27.929688 87.953125 C 27.214844 88.410156 26.96875 90.050781 27.792969 90.605469 C 27.996094 90.742188 28.222656 90.832031 28.464844 90.886719 C 28.691406 90.902344 28.90625 90.964844 29.109375 91.058594 C 29.558594 91.371094 28.972656 91.460938 28.742188 91.414062 C 29.210938 92.378906 29.476562 93.328125 28.839844 94.238281 C 28.191406 95.039062 27.375 95.585938 26.382812 95.878906 C 25.324219 96.273438 24.257812 96.292969 23.1875 95.933594 C 22.945312 95.824219 22.714844 95.84375 22.5 95.996094 C 22.222656 96.160156 21.929688 96.285156 21.621094 96.371094 C 21.21875 96.484375 20.8125 96.550781 20.390625 96.574219 C 19.585938 96.640625 18.824219 96.476562 18.117188 96.082031 C 17.320312 95.65625 16.734375 95.03125 16.367188 94.203125 C 16.207031 93.699219 16.164062 93.1875 16.234375 92.664062 C 16.234375 92.300781 16.433594 91.753906 16.234375 91.4375 C 16.03125 91.113281 15.617188 90.988281 15.335938 90.820312 C 15.015625 90.648438 14.75 90.417969 14.535156 90.125 C 13.304688 88.527344 13.601562 86.316406 14.378906 84.660156 C 14.535156 84.292969 14.742188 83.953125 14.992188 83.640625 C 15.242188 83.332031 15.527344 83.058594 15.855469 82.828125 C 16.179688 82.59375 16.527344 82.410156 16.902344 82.273438 C 17.277344 82.136719 17.664062 82.050781 18.0625 82.023438 C 19.042969 81.9375 19.992188 82.070312 20.910156 82.414062 C 21.742188 82.710938 22.753906 83.261719 23.609375 82.972656 C 24.46875 82.683594 24.835938 81.84375 25.304688 81.199219 C 25.851562 80.484375 26.542969 79.960938 27.378906 79.625 C 28.203125 79.320312 29.054688 79.195312 29.925781 79.238281 C 30.800781 79.28125 31.636719 79.496094 32.425781 79.875 C 33.308594 80.199219 34.128906 80.644531 34.878906 81.21875 C 35.285156 81.640625 35.636719 82.105469 35.933594 82.609375 C 36.199219 82.972656 36.433594 83.351562 36.636719 83.746094 " fill-opacity="1" fill-rule="nonzero"/><path fill="#000000" d="M 129.210938 122.179688 C 129.214844 122.035156 129.292969 121.957031 129.441406 121.953125 L 140.175781 121.953125 C 140.246094 121.941406 140.308594 121.960938 140.363281 122.007812 C 140.417969 122.054688 140.445312 122.113281 140.445312 122.183594 C 140.445312 122.257812 140.417969 122.316406 140.363281 122.363281 C 140.308594 122.410156 140.246094 122.425781 140.175781 122.417969 L 129.441406 122.417969 C 129.378906 122.414062 129.320312 122.390625 129.277344 122.34375 C 129.234375 122.300781 129.210938 122.242188 129.210938 122.179688 Z M 158.601562 123.804688 L 129.441406 123.804688 C 129.308594 123.828125 129.246094 123.902344 129.246094 124.035156 C 129.246094 124.167969 129.308594 124.246094 129.441406 124.265625 L 158.601562 124.265625 C 158.671875 124.277344 158.738281 124.257812 158.789062 124.210938 C 158.847656 124.164062 158.871094 124.109375 158.871094 124.035156 C 158.871094 123.960938 158.847656 123.902344 158.789062 123.855469 C 158.738281 123.808594 158.671875 123.792969 158.601562 123.804688 Z M 158.601562 125.648438 L 129.441406 125.648438 C 129.308594 125.671875 129.246094 125.75 129.246094 125.882812 C 129.246094 126.011719 129.308594 126.085938 129.441406 126.109375 L 158.601562 126.109375 C 158.671875 126.121094 158.738281 126.105469 158.789062 126.058594 C 158.847656 126.011719 158.871094 125.949219 158.871094 125.882812 C 158.871094 125.808594 158.847656 125.75 158.789062 125.703125 C 158.738281 125.65625 158.671875 125.636719 158.601562 125.648438 Z M 158.601562 127.492188 L 129.441406 127.492188 C 129.378906 127.492188 129.320312 127.515625 129.277344 127.5625 C 129.234375 127.609375 129.210938 127.664062 129.210938 127.726562 C 129.210938 127.789062 129.234375 127.84375 129.277344 127.890625 C 129.324219 127.933594 129.378906 127.957031 129.441406 127.957031 L 158.601562 127.957031 C 158.664062 127.957031 158.71875 127.9375 158.765625 127.890625 C 158.8125 127.847656 158.832031 127.789062 158.832031 127.726562 C 158.832031 127.664062 158.8125 127.605469 158.765625 127.558594 C 158.71875 127.515625 158.667969 127.492188 158.601562 127.492188 Z M 158.601562 129.339844 L 129.441406 129.339844 C 129.378906 129.339844 129.324219 129.359375 129.277344 129.40625 C 129.234375 129.449219 129.210938 129.503906 129.210938 129.566406 C 129.210938 129.628906 129.234375 129.683594 129.277344 129.726562 C 129.320312 129.773438 129.378906 129.796875 129.441406 129.796875 L 158.601562 129.796875 C 158.667969 129.796875 158.71875 129.773438 158.765625 129.730469 C 158.8125 129.683594 158.832031 129.628906 158.832031 129.566406 C 158.832031 129.503906 158.8125 129.445312 158.765625 129.402344 C 158.71875 129.359375 158.664062 129.335938 158.601562 129.339844 Z M 158.601562 131.179688 L 129.441406 131.179688 C 129.378906 131.179688 129.324219 131.203125 129.277344 131.246094 C 129.234375 131.292969 129.210938 131.347656 129.210938 131.410156 C 129.210938 131.472656 129.234375 131.527344 129.277344 131.574219 C 129.320312 131.617188 129.378906 131.640625 129.441406 131.644531 L 158.601562 131.644531 C 158.667969 131.644531 158.71875 131.621094 158.765625 131.574219 C 158.8125 131.53125 158.832031 131.472656 158.832031 131.410156 C 158.832031 131.34375 158.8125 131.292969 158.765625 131.246094 C 158.71875 131.203125 158.664062 131.179688 158.601562 131.179688 Z M 158.601562 133.027344 L 129.441406 133.027344 C 129.308594 133.046875 129.246094 133.125 129.246094 133.257812 C 129.246094 133.390625 129.308594 133.464844 129.441406 133.488281 L 158.601562 133.488281 C 158.671875 133.5 158.738281 133.484375 158.789062 133.4375 C 158.847656 133.390625 158.871094 133.328125 158.871094 133.257812 C 158.871094 133.1875 158.847656 133.125 158.789062 133.082031 C 158.738281 133.035156 158.671875 133.015625 158.601562 133.027344 Z M 165.679688 122.417969 L 176.414062 122.417969 C 176.542969 122.394531 176.609375 122.316406 176.609375 122.183594 C 176.609375 122.054688 176.542969 121.972656 176.414062 121.953125 L 165.679688 121.953125 C 165.546875 121.972656 165.480469 122.054688 165.480469 122.183594 C 165.480469 122.316406 165.546875 122.394531 165.679688 122.417969 Z M 165.679688 124.257812 L 194.839844 124.257812 C 194.96875 124.238281 195.035156 124.160156 195.035156 124.027344 C 195.035156 123.894531 194.96875 123.820312 194.839844 123.800781 L 165.679688 123.800781 C 165.546875 123.820312 165.480469 123.894531 165.480469 124.027344 C 165.480469 124.160156 165.546875 124.238281 165.679688 124.257812 Z M 194.839844 125.648438 L 165.679688 125.648438 C 165.546875 125.671875 165.480469 125.75 165.480469 125.882812 C 165.480469 126.011719 165.546875 126.085938 165.679688 126.109375 L 194.839844 126.109375 C 194.96875 126.085938 195.035156 126.011719 195.035156 125.882812 C 195.035156 125.75 194.96875 125.671875 194.839844 125.648438 Z M 194.839844 127.492188 L 165.679688 127.492188 C 165.613281 127.492188 165.558594 127.515625 165.515625 127.5625 C 165.472656 127.605469 165.449219 127.664062 165.453125 127.726562 C 165.449219 127.789062 165.472656 127.847656 165.515625 127.890625 C 165.5625 127.9375 165.613281 127.957031 165.679688 127.957031 L 194.839844 127.957031 C 194.902344 127.957031 194.957031 127.933594 195 127.890625 C 195.042969 127.84375 195.066406 127.789062 195.066406 127.726562 C 195.066406 127.664062 195.042969 127.609375 195 127.5625 C 194.957031 127.515625 194.902344 127.492188 194.839844 127.492188 Z M 194.839844 129.339844 L 165.679688 129.339844 C 165.613281 129.335938 165.5625 129.359375 165.515625 129.402344 C 165.472656 129.449219 165.449219 129.503906 165.453125 129.566406 C 165.449219 129.628906 165.472656 129.683594 165.515625 129.730469 C 165.558594 129.773438 165.613281 129.796875 165.679688 129.796875 L 194.839844 129.796875 C 194.902344 129.796875 194.957031 129.773438 195 129.726562 C 195.042969 129.683594 195.066406 129.628906 195.066406 129.566406 C 195.066406 129.503906 195.042969 129.449219 195 129.40625 C 194.957031 129.359375 194.902344 129.339844 194.839844 129.339844 Z M 194.839844 131.179688 L 165.679688 131.179688 C 165.613281 131.179688 165.5625 131.203125 165.515625 131.246094 C 165.472656 131.292969 165.449219 131.347656 165.453125 131.410156 C 165.449219 131.472656 165.472656 131.527344 165.515625 131.574219 C 165.558594 131.621094 165.613281 131.644531 165.679688 131.644531 L 194.839844 131.644531 C 194.902344 131.640625 194.957031 131.617188 195 131.574219 C 195.042969 131.527344 195.066406 131.472656 195.066406 131.410156 C 195.066406 131.347656 195.042969 131.292969 195 131.246094 C 194.957031 131.203125 194.902344 131.179688 194.839844 131.179688 Z M 194.839844 133.027344 L 165.679688 133.027344 C 165.546875 133.046875 165.480469 133.125 165.480469 133.257812 C 165.480469 133.390625 165.546875 133.464844 165.679688 133.488281 L 194.839844 133.488281 C 194.96875 133.464844 195.035156 133.390625 195.035156 133.257812 C 195.035156 133.125 194.96875 133.046875 194.839844 133.027344 Z M 194.839844 133.027344 " fill-opacity="1" fill-rule="nonzero"/><path fill="#000000" d="M 204.722656 74.710938 L 177.976562 74.679688 C 177.914062 74.679688 177.859375 74.65625 177.816406 74.609375 C 177.773438 74.5625 177.75 74.511719 177.75 74.449219 L 177.75 60.472656 C 177.75 60.410156 177.773438 60.351562 177.816406 60.304688 C 177.863281 60.261719 177.917969 60.238281 177.976562 60.238281 L 204.722656 60.277344 C 204.785156 60.273438 204.839844 60.296875 204.882812 60.339844 C 204.929688 60.386719 204.949219 60.4375 204.949219 60.5 L 204.949219 74.476562 C 204.949219 74.539062 204.925781 74.597656 204.878906 74.644531 C 204.835938 74.6875 204.78125 74.710938 204.714844 74.710938 Z M 178.210938 74.21875 L 204.496094 74.25 L 204.496094 60.722656 L 178.21875 60.6875 Z M 178.210938 74.21875 " fill-opacity="1" fill-rule="nonzero"/><path fill="#ffffff" d="M 145.902344 177.390625 C 145.902344 177.789062 145.863281 178.1875 145.785156 178.574219 C 145.707031 178.96875 145.59375 179.347656 145.441406 179.714844 C 145.289062 180.085938 145.101562 180.433594 144.878906 180.761719 C 144.660156 181.09375 144.410156 181.402344 144.128906 181.683594 C 143.84375 181.964844 143.539062 182.214844 143.207031 182.4375 C 142.878906 182.660156 142.527344 182.847656 142.160156 183 C 141.792969 183.152344 141.414062 183.265625 141.023438 183.34375 C 140.636719 183.421875 140.238281 183.460938 139.839844 183.460938 C 139.441406 183.460938 139.050781 183.417969 138.660156 183.34375 C 138.269531 183.265625 137.890625 183.152344 137.523438 182.996094 C 137.15625 182.84375 136.808594 182.660156 136.476562 182.4375 C 136.144531 182.214844 135.839844 181.964844 135.558594 181.679688 C 135.277344 181.398438 135.023438 181.09375 134.804688 180.757812 C 134.582031 180.429688 134.398438 180.078125 134.246094 179.710938 C 134.09375 179.34375 133.980469 178.964844 133.902344 178.570312 C 133.824219 178.183594 133.785156 177.785156 133.785156 177.386719 C 133.785156 176.988281 133.828125 176.597656 133.902344 176.203125 C 133.984375 175.8125 134.09375 175.433594 134.25 175.066406 C 134.402344 174.699219 134.585938 174.347656 134.808594 174.015625 C 135.03125 173.6875 135.285156 173.378906 135.5625 173.097656 C 135.84375 172.816406 136.148438 172.566406 136.480469 172.34375 C 136.8125 172.125 137.164062 171.933594 137.53125 171.785156 C 137.898438 171.632812 138.277344 171.515625 138.667969 171.4375 C 139.058594 171.363281 139.453125 171.324219 139.851562 171.324219 C 140.246094 171.324219 140.640625 171.363281 141.03125 171.4375 C 141.421875 171.519531 141.800781 171.632812 142.167969 171.785156 C 142.535156 171.9375 142.882812 172.125 143.214844 172.347656 C 143.546875 172.570312 143.851562 172.820312 144.128906 173.101562 C 144.414062 173.382812 144.664062 173.691406 144.882812 174.023438 C 145.105469 174.351562 145.292969 174.703125 145.441406 175.070312 C 145.59375 175.4375 145.710938 175.820312 145.785156 176.207031 C 145.863281 176.601562 145.902344 176.996094 145.902344 177.390625 Z M 149.308594 175.867188 L 160.039062 175.867188 C 160.109375 175.878906 160.171875 175.863281 160.226562 175.816406 C 160.28125 175.769531 160.308594 175.707031 160.308594 175.636719 C 160.308594 175.566406 160.28125 175.507812 160.226562 175.460938 C 160.171875 175.414062 160.109375 175.394531 160.039062 175.40625 L 149.324219 175.40625 C 149.257812 175.394531 149.191406 175.414062 149.140625 175.460938 C 149.082031 175.507812 149.058594 175.566406 149.058594 175.636719 C 149.058594 175.707031 149.082031 175.769531 149.140625 175.816406 C 149.191406 175.863281 149.257812 175.878906 149.324219 175.867188 Z M 178.464844 177.25 L 149.324219 177.25 C 149.257812 177.238281 149.191406 177.257812 149.140625 177.304688 C 149.082031 177.351562 149.058594 177.40625 149.058594 177.480469 C 149.058594 177.554688 149.082031 177.613281 149.140625 177.660156 C 149.191406 177.707031 149.257812 177.722656 149.324219 177.710938 L 178.480469 177.710938 C 178.550781 177.722656 178.613281 177.707031 178.671875 177.660156 C 178.722656 177.613281 178.753906 177.554688 178.753906 177.480469 C 178.753906 177.40625 178.722656 177.351562 178.671875 177.304688 C 178.613281 177.257812 178.550781 177.238281 178.480469 177.25 Z M 205.578125 202.058594 L 199.511719 191.503906 L 193.691406 201.570312 L 189.285156 193.894531 L 184.570312 202.046875 L 193.972656 202.046875 Z M 194.132812 193.113281 C 194.378906 193.121094 194.613281 193.074219 194.84375 192.988281 C 195.074219 192.898438 195.277344 192.765625 195.453125 192.59375 C 195.628906 192.425781 195.761719 192.226562 195.859375 192.003906 C 195.960938 191.777344 196.007812 191.539062 196.011719 191.292969 C 196.015625 191.046875 195.96875 190.8125 195.878906 190.582031 C 195.789062 190.355469 195.65625 190.152344 195.484375 189.976562 C 195.316406 189.804688 195.117188 189.667969 194.890625 189.570312 C 194.664062 189.476562 194.429688 189.425781 194.183594 189.425781 C 193.9375 189.421875 193.703125 189.46875 193.472656 189.5625 C 193.246094 189.65625 193.046875 189.789062 192.871094 189.960938 C 192.699219 190.132812 192.5625 190.332031 192.46875 190.558594 C 192.378906 190.789062 192.328125 191.023438 192.328125 191.265625 C 192.324219 191.511719 192.367188 191.746094 192.457031 191.972656 C 192.546875 192.195312 192.675781 192.394531 192.84375 192.570312 C 193.015625 192.742188 193.210938 192.875 193.4375 192.96875 C 193.660156 193.066406 193.890625 193.113281 194.132812 193.113281 Z M 194.132812 193.113281 " fill-opacity="1" fill-rule="nonzero"/><path fill="#000000" d="M 137.8125 38.71875 C 137.757812 38.71875 137.707031 38.703125 137.664062 38.664062 C 137.617188 38.625 137.589844 38.570312 137.585938 38.507812 L 135.90625 18.273438 C 135.898438 18.210938 135.914062 18.15625 135.949219 18.105469 C 135.996094 18.058594 136.050781 18.03125 136.109375 18.027344 L 174.824219 14.789062 C 174.890625 14.777344 174.949219 14.789062 175.007812 14.824219 C 175.0625 14.863281 175.097656 14.914062 175.105469 14.980469 L 176.757812 35.269531 C 176.761719 35.332031 176.746094 35.386719 176.710938 35.4375 C 176.664062 35.488281 176.613281 35.511719 176.550781 35.515625 L 137.835938 38.75 Z M 136.375 18.46875 L 138.027344 38.238281 L 176.285156 35.050781 L 174.632812 15.269531 Z M 136.375 18.46875 " fill-opacity="1" fill-rule="nonzero"/><path fill="#000000" d="M 249.078125 121.417969 C 249.015625 121.414062 248.964844 121.386719 248.921875 121.335938 C 248.882812 121.285156 248.867188 121.230469 248.871094 121.167969 C 248.871094 121.078125 249.558594 111.605469 247.03125 106.75 C 247 106.691406 246.992188 106.636719 247.011719 106.570312 C 247.03125 106.507812 247.070312 106.464844 247.128906 106.4375 C 247.261719 106.371094 247.363281 106.402344 247.4375 106.535156 C 250.007812 111.511719 249.339844 120.808594 249.308594 121.203125 C 249.296875 121.347656 249.222656 121.417969 249.078125 121.417969 Z M 249.078125 121.417969 " fill-opacity="1" fill-rule="nonzero"/><path fill="#8b0000" d="M 98.382812 61.128906 L 115.570312 61.128906 C 115.570312 61.128906 116.183594 74.101562 111.832031 81.589844 L 91.015625 84.960938 C 91.015625 84.960938 95.765625 83.226562 98.382812 61.128906 Z M 168.003906 107.601562 L 188.804688 104.234375 C 193.164062 96.753906 192.542969 83.773438 192.542969 83.773438 L 175.359375 83.773438 C 172.734375 105.855469 168.003906 107.601562 168.003906 107.601562 Z M 147.011719 83.839844 L 160.949219 81.585938 C 163.871094 76.550781 163.445312 67.855469 163.445312 67.855469 L 151.933594 67.855469 C 150.179688 82.652344 147.011719 83.839844 147.011719 83.839844 Z M 147.011719 83.839844 " fill-opacity="1" fill-rule="nonzero"/><g clip-path="url(#91ad61e0c7)"><path fill="#000000" d="M 135.378906 41.609375 C 135.324219 41.609375 135.273438 41.589844 135.226562 41.554688 C 135.179688 41.511719 135.15625 41.457031 135.148438 41.394531 L 133.019531 15.835938 C 133.015625 15.773438 133.03125 15.714844 133.078125 15.667969 C 133.117188 15.617188 133.167969 15.59375 133.230469 15.585938 L 177.261719 11.894531 C 177.328125 11.890625 177.382812 11.90625 177.433594 11.949219 C 177.480469 11.992188 177.503906 12.039062 177.511719 12.105469 L 179.644531 37.667969 C 179.648438 37.730469 179.628906 37.789062 179.582031 37.835938 C 179.542969 37.882812 179.492188 37.910156 179.429688 37.914062 L 135.398438 41.605469 Z M 133.496094 16.027344 L 135.589844 41.121094 L 179.167969 37.492188 L 177.070312 12.386719 Z M 133.496094 16.027344 " fill-opacity="1" fill-rule="nonzero"/></g></svg>