<svg width="50" height="50" viewBox="0 0 50 50" fill="none" xmlns="http://www.w3.org/2000/svg">
  <path
    d="M23.8889 21.1195C23.2997 21.4071 22.8479 21.9159 22.632 22.535C22.4161 23.1541 22.4535 23.8334 22.7361 24.4251C22.8439 24.6408 22.9793 24.8415 23.1389 25.0223C22.8128 25.3814 22.5982 25.8276 22.5214 26.3066C22.4445 26.7855 22.5086 27.2765 22.7058 27.7196C22.9031 28.1628 23.2251 28.5389 23.6324 28.8023C24.0398 29.0657 24.5149 29.2048 25 29.2028C25.2029 30.5883 25.8962 31.855 26.954 32.7726C28.0117 33.6901 29.3636 34.1977 30.7639 34.2028H34.0972C35.507 34.211 36.8723 33.7095 37.9417 32.7908C39.011 31.872 39.7124 30.5978 39.9167 29.2028H39.9861C40.6468 29.2028 41.2805 28.9414 41.749 28.4755C42.2174 28.0097 42.4824 27.3774 42.4861 26.7167C42.4892 26.0941 42.2559 25.4935 41.8333 25.0362C42.055 24.7954 42.2267 24.5131 42.3384 24.2055C42.4501 23.898 42.4996 23.5713 42.4841 23.2444C42.4686 22.9175 42.3884 22.597 42.2481 22.3014C42.1077 22.0058 41.9101 21.7409 41.6667 21.5223C41.4881 21.3599 41.2869 21.2242 41.0694 21.1195C42.8182 18.5259 43.8748 15.5281 44.1389 12.4112C44.0345 9.38846 42.7604 6.52441 40.5852 4.42298C38.41 2.32154 35.5037 1.14698 32.4792 1.14698C29.4547 1.14698 26.5484 2.32154 24.3731 4.42298C22.1979 6.52441 20.9238 9.38846 20.8194 12.4112C20.8333 15.7445 22.8056 19.3695 23.8889 21.1195ZM39.9861 22.5084C40.2071 22.5084 40.4191 22.5962 40.5754 22.7525C40.7316 22.9087 40.8194 23.1207 40.8194 23.3417C40.8194 23.5627 40.7316 23.7747 40.5754 23.931C40.4191 24.0873 40.2071 24.1751 39.9861 24.1751H25C24.779 24.1751 24.567 24.0873 24.4107 23.931C24.2545 23.7747 24.1667 23.5627 24.1667 23.3417C24.1667 23.1207 24.2545 22.9087 24.4107 22.7525C24.567 22.5962 24.779 22.5084 25 22.5084H39.9861ZM34.1528 32.5084H30.8194C29.8628 32.5099 28.9347 32.1822 28.1912 31.5802C27.4476 30.9783 26.9338 30.1388 26.7361 29.2028H38.2361C38.0412 30.1414 37.5286 30.9841 36.7848 31.5887C36.041 32.1934 35.1114 32.5231 34.1528 32.5223V32.5084ZM39.9861 27.5084H25C24.779 27.5084 24.567 27.4206 24.4107 27.2643C24.2545 27.108 24.1667 26.8961 24.1667 26.6751C24.1667 26.454 24.2545 26.2421 24.4107 26.0858C24.567 25.9295 24.779 25.8417 25 25.8417H40C40.221 25.8417 40.433 25.9295 40.5893 26.0858C40.7455 26.2421 40.8333 26.454 40.8333 26.6751C40.8333 26.8961 40.7455 27.108 40.5893 27.2643C40.433 27.4206 40.221 27.5084 40 27.5084H39.9861ZM32.4861 2.50839C35.1126 2.52961 37.6271 3.57483 39.4947 5.42168C41.3623 7.26853 42.4355 9.77122 42.4861 12.3973C42.4861 15.7445 40.0417 19.6889 39.2639 20.8417H25.7083C24.9444 19.6889 22.4861 15.7584 22.4861 12.3973C22.5402 9.77364 23.6151 7.27447 25.4823 5.43059C27.3495 3.58671 29.862 2.54341 32.4861 2.52228V2.50839ZM42.4861 32.5778C42 32.7862 40.5556 33.5223 38.3194 34.7167C36.25 35.7862 33.7917 37.0639 32.2917 37.7723C32.174 37.1497 31.9081 36.5647 31.5164 36.0667C31.1248 35.5687 30.6189 35.1723 30.0417 34.9112L16.5694 28.0917C15.8934 27.792 15.1644 27.6302 14.4251 27.6159C13.6857 27.6016 12.951 27.735 12.2639 28.0084L8.33333 28.9667V26.6889C8.33333 26.4679 8.24554 26.256 8.08926 26.0997C7.93297 25.9434 7.72101 25.8556 7.5 25.8556H0.833333C0.612319 25.8556 0.400358 25.9434 0.244078 26.0997C0.0877974 26.256 0 26.4679 0 26.6889V45.8695C0 46.0905 0.0877974 46.3025 0.244078 46.4588C0.400358 46.615 0.612319 46.7028 0.833333 46.7028H7.5C7.72101 46.7028 7.93297 46.615 8.08926 46.4588C8.24554 46.3025 8.33333 46.0905 8.33333 45.8695V43.5223C10.4742 43.9152 12.5928 44.4205 14.6806 45.0362L25.2361 49.2028C26.3356 49.7005 27.5292 49.9562 28.7361 49.9528C30.3592 49.9469 31.9494 49.4953 33.3333 48.6473C35.9306 47.0778 47.2222 39.0223 47.6944 37.8556C48.0324 37.1221 48.1388 36.303 47.9994 35.5075C47.86 34.712 47.4814 33.9779 46.9141 33.403C46.3468 32.8282 45.6177 32.4399 44.8242 32.29C44.0306 32.1401 43.2101 32.2357 42.4722 32.5639L42.4861 32.5778ZM6.66667 45.0084H1.66667V27.5223H6.66667V45.0084ZM46.2083 37.1334C41.8383 40.7765 37.2561 44.1574 32.4861 47.2584C31.5017 47.8602 30.3863 48.2149 29.2351 48.2923C28.0839 48.3697 26.9311 48.1674 25.875 47.7028L15.3056 43.5362C13.022 42.8574 10.7039 42.3011 8.36111 41.8695V30.7584L12.6806 29.7028H12.8056C13.2821 29.5 13.7946 29.3954 14.3125 29.3954C14.8304 29.3954 15.3429 29.5 15.8194 29.7028L29.3056 36.5223C29.7758 36.7334 30.1651 37.0909 30.4154 37.5415C30.6658 37.9921 30.7636 38.5115 30.6944 39.0223V39.0917C30.6784 39.3476 30.627 39.6 30.5417 39.8417C30.3107 40.4476 29.8592 40.9437 29.2778 41.2306C28.9946 41.3699 28.6862 41.4504 28.3711 41.4671C28.056 41.4838 27.7407 41.4364 27.4444 41.3278L19.1111 38.3001C18.903 38.2245 18.6734 38.2348 18.4728 38.3286C18.2723 38.4223 18.1172 38.5919 18.0417 38.8001C17.9662 39.0082 17.9764 39.2378 18.0702 39.4383C18.1639 39.6389 18.3335 39.794 18.5417 39.8695L26.875 42.8973C27.3206 43.0567 27.7907 43.1366 28.2639 43.1334C28.8789 43.132 29.4861 42.9944 30.0417 42.7306C30.6396 42.4409 31.1596 42.0124 31.5582 41.4809C31.9569 40.9493 32.2226 40.3302 32.3333 39.6751C33.7222 39.0639 36.5833 37.5917 39.1389 36.2584C41.0139 35.3001 42.7778 34.3695 43.2222 34.2028C43.4994 34.0745 43.7991 34.0022 44.1043 33.99C44.4094 33.9778 44.714 34.026 45.0004 34.1318C45.2869 34.2377 45.5497 34.399 45.7737 34.6066C45.9976 34.8143 46.1784 35.0641 46.3056 35.3417V35.4251C46.4964 35.9855 46.4615 36.5982 46.2083 37.1334ZM29.1667 10.8556C29.194 10.205 29.4646 9.58838 29.9251 9.12793C30.3855 8.66747 31.0022 8.39679 31.6528 8.3695V7.53617C31.6528 7.31515 31.7406 7.10319 31.8969 6.94691C32.0531 6.79063 32.2651 6.70283 32.4861 6.70283C32.7071 6.70283 32.9191 6.79063 33.0754 6.94691C33.2316 7.10319 33.3194 7.31515 33.3194 7.53617V8.3695H34.1528C34.2622 8.3695 34.3706 8.39106 34.4717 8.43293C34.5728 8.47481 34.6646 8.5362 34.742 8.61358C34.8194 8.69096 34.8808 8.78283 34.9227 8.88393C34.9646 8.98504 34.9861 9.0934 34.9861 9.20284C34.9861 9.31227 34.9646 9.42063 34.9227 9.52174C34.8808 9.62284 34.8194 9.71471 34.742 9.79209C34.6646 9.86947 34.5728 9.93085 34.4717 9.97273C34.3706 10.0146 34.2622 10.0362 34.1528 10.0362H31.6528C31.4418 10.0647 31.246 10.1616 31.0955 10.3122C30.9449 10.4627 30.8479 10.6585 30.8194 10.8695C30.8457 11.0814 30.9419 11.2784 31.0929 11.4294C31.2438 11.5804 31.4409 11.6766 31.6528 11.7028H33.3333C33.9887 11.7269 34.6107 11.9981 35.0744 12.4618C35.5381 12.9255 35.8092 13.5475 35.8333 14.2028C35.8092 14.8582 35.5381 15.4802 35.0744 15.9439C34.6107 16.4076 33.9887 16.6787 33.3333 16.7028V17.5362C33.3333 17.7572 33.2455 17.9691 33.0893 18.1254C32.933 18.2817 32.721 18.3695 32.5 18.3695C32.279 18.3695 32.067 18.2817 31.9107 18.1254C31.7545 17.9691 31.6667 17.7572 31.6667 17.5362V16.7028H30.8333C30.6123 16.7028 30.4004 16.615 30.2441 16.4588C30.0878 16.3025 30 16.0905 30 15.8695C30 15.6485 30.0878 15.4365 30.2441 15.2802C30.4004 15.124 30.6123 15.0362 30.8333 15.0362H33.3333C33.5461 15.0123 33.7445 14.9168 33.8959 14.7654C34.0473 14.614 34.1428 14.4156 34.1667 14.2028C34.1404 13.991 34.0442 13.7939 33.8932 13.6429C33.7423 13.492 33.5452 13.3957 33.3333 13.3695H31.6667C31.009 13.3452 30.3851 13.0721 29.921 12.6055C29.4569 12.1388 29.1873 11.5134 29.1667 10.8556ZM41.9167 3.1195C41.8373 3.04305 41.7741 2.95137 41.731 2.84995C41.6878 2.74852 41.6656 2.63944 41.6656 2.52922C41.6656 2.41901 41.6878 2.30992 41.731 2.2085C41.7741 2.10707 41.8373 2.01539 41.9167 1.93895L43.5833 0.272279C43.7407 0.136041 43.9433 0.0636061 44.1513 0.0692232C44.3594 0.0748402 44.5578 0.158102 44.7075 0.302632C44.8573 0.447161 44.9475 0.642495 44.9605 0.85021C44.9735 1.05793 44.9083 1.26299 44.7778 1.42506L43.0556 3.1195C42.8998 3.27219 42.6903 3.35772 42.4722 3.35772C42.2541 3.35772 42.0447 3.27219 41.8889 3.1195H41.9167ZM45.2361 6.98061L46.8889 5.31395C47.047 5.16037 47.2587 5.07447 47.4792 5.07447C47.6996 5.07447 47.9113 5.16037 48.0694 5.31395C48.2221 5.46972 48.3077 5.67915 48.3077 5.89728C48.3077 6.11541 48.2221 6.32484 48.0694 6.48061L46.4028 8.14728C46.2423 8.26764 46.0438 8.32607 45.8437 8.31185C45.6436 8.29763 45.4554 8.21171 45.3135 8.06987C45.1717 7.92802 45.0858 7.73978 45.0715 7.53969C45.0573 7.3396 45.1158 7.14109 45.2361 6.98061ZM50 12.5362C50 12.7572 49.9122 12.9691 49.7559 13.1254C49.5996 13.2817 49.3877 13.3695 49.1667 13.3695H46.6667C46.4456 13.3695 46.2337 13.2817 46.0774 13.1254C45.9211 12.9691 45.8333 12.7572 45.8333 12.5362C45.8333 12.3152 45.9211 12.1032 46.0774 11.9469C46.2337 11.7906 46.4456 11.7028 46.6667 11.7028H49.1667C49.3877 11.7028 49.5996 11.7906 49.7559 11.9469C49.9122 12.1032 50 12.3152 50 12.5362ZM20.2361 1.42506C20.0796 1.26851 19.9916 1.05618 19.9916 0.834779C19.9916 0.613382 20.0796 0.401053 20.2361 0.244501C20.3927 0.0879498 20.605 2.3328e-09 20.8264 0C21.0478 -2.3328e-09 21.2601 0.0879498 21.4167 0.244501L23.0833 1.91117C23.161 1.98859 23.2227 2.08058 23.2647 2.18187C23.3068 2.28317 23.3284 2.39177 23.3284 2.50145C23.3284 2.61112 23.3068 2.71972 23.2647 2.82102C23.2227 2.92231 23.161 3.0143 23.0833 3.09172C23.0071 3.16899 22.9163 3.23034 22.8161 3.27222C22.716 3.31409 22.6085 3.33566 22.5 3.33566C22.3915 3.33566 22.284 3.31409 22.1839 3.27222C22.0837 3.23034 21.9929 3.16899 21.9167 3.09172L20.2361 1.42506ZM16.9028 6.42506C16.7988 6.26493 16.7529 6.07395 16.7729 5.88406C16.7928 5.69417 16.8774 5.51689 17.0124 5.38188C17.1474 5.24687 17.3247 5.16231 17.5146 5.14236C17.7044 5.12241 17.8954 5.16827 18.0556 5.27228L19.75 6.98061C19.8277 7.05803 19.8893 7.15002 19.9314 7.25132C19.9734 7.35261 19.9951 7.46121 19.9951 7.57089C19.9951 7.68057 19.9734 7.78917 19.9314 7.89046C19.8893 7.99175 19.8277 8.08375 19.75 8.16117C19.6738 8.23843 19.5829 8.29979 19.4828 8.34166C19.3827 8.38354 19.2752 8.4051 19.1667 8.4051C19.0581 8.4051 18.9507 8.38354 18.8505 8.34166C18.7504 8.29979 18.6596 8.23843 18.5833 8.16117L16.9028 6.42506ZM15 12.5362C15 12.3152 15.0878 12.1032 15.2441 11.9469C15.4004 11.7906 15.6123 11.7028 15.8333 11.7028H18.3333C18.5543 11.7028 18.7663 11.7906 18.9226 11.9469C19.0789 12.1032 19.1667 12.3152 19.1667 12.5362C19.1667 12.7572 19.0789 12.9691 18.9226 13.1254C18.7663 13.2817 18.5543 13.3695 18.3333 13.3695H15.8333C15.6123 13.3695 15.4004 13.2817 15.2441 13.1254C15.0878 12.9691 15 12.7572 15 12.5362Z"
    fill="white" />
</svg>
