<svg width="50" height="47" viewBox="0 0 50 47" fill="none" xmlns="http://www.w3.org/2000/svg">
  <g clip-path="url(#clip0_44_179)">
    <path
      d="M48.554 32.9H42.1863C41.9752 32.9 41.7727 32.9825 41.6235 33.1294C41.4742 33.2763 41.3903 33.4756 41.3903 33.6833V34.9367C40.0069 33.6264 38.1604 32.8962 36.2404 32.9H35.2106C34.6149 32.8985 34.0277 33.0405 33.5005 33.3135C32.9733 33.5866 32.522 33.9825 32.186 34.4667H27.0629C26.6609 34.468 26.2657 34.5692 25.914 34.7609C25.5623 34.9527 25.2655 35.2286 25.0511 35.5633L21.1101 32.289C20.7043 31.8509 20.1733 31.5439 19.5869 31.4084C19.0005 31.2728 18.3862 31.315 17.8246 31.5294C17.2631 31.7438 16.7805 32.1204 16.4405 32.6097C16.1005 33.099 15.9188 33.678 15.9194 34.2708V34.4206C15.9191 35.1467 16.192 35.8471 16.6855 36.3868L21.6901 41.8604C22.2624 42.4877 22.9616 42.9903 23.743 43.3358C24.5244 43.6813 25.3705 43.8622 26.2271 43.8667L41.3903 44.6128V46.2167C41.3903 46.4244 41.4742 46.6237 41.6235 46.7706C41.7727 46.9175 41.9752 47 42.1863 47H48.554C48.7651 47 48.9676 46.9175 49.1169 46.7706C49.2661 46.6237 49.35 46.4244 49.35 46.2167V33.6833C49.35 33.4756 49.2661 33.2763 49.1169 33.1294C48.9676 32.9825 48.7651 32.9 48.554 32.9ZM26.2669 42.3C25.627 42.2992 24.9942 42.1664 24.4097 41.91C23.8251 41.6536 23.3016 41.2795 22.8731 40.8117L17.8695 35.3411C17.6387 35.0891 17.5111 34.7618 17.5113 34.4226V34.2708C17.5107 33.9914 17.5969 33.7184 17.7584 33.4886C17.9199 33.2587 18.1488 33.0829 18.4147 32.9847C18.6805 32.8865 18.9705 32.8705 19.2458 32.9391C19.5211 33.0076 19.7685 33.1573 19.9549 33.368C19.9814 33.3974 20.01 33.4249 20.0405 33.4503L24.7456 37.3581C24.8693 37.872 25.1651 38.3298 25.5855 38.6579C26.0059 38.986 26.5264 39.1653 27.0629 39.1667H32.6347V37.6H27.0629C26.8518 37.6 26.6493 37.5175 26.5001 37.3706C26.3508 37.2237 26.2669 37.0244 26.2669 36.8167C26.2669 36.6089 26.3508 36.4097 26.5001 36.2628C26.6493 36.1159 26.8518 36.0333 27.0629 36.0333H32.6347C32.7832 36.0342 32.9291 35.9941 33.0557 35.9176C33.1823 35.8411 33.2846 35.7313 33.3511 35.6005C33.5223 35.2593 33.7873 34.9722 34.116 34.7717C34.4447 34.5713 34.8239 34.4656 35.2106 34.4667H36.2404C37.0099 34.4643 37.7723 34.6119 38.4836 34.9009C39.1948 35.19 39.8409 35.6148 40.3844 36.1508C40.7508 36.6818 41.0867 37.2327 41.3903 37.8007V43.0432L26.2669 42.3ZM47.7581 45.4333H42.9823V34.4667H47.7581V45.4333Z"
      fill="white" />
    <path
      d="M3.97984 23.5C4.40204 23.5 4.80696 23.6651 5.1055 23.9589C5.40405 24.2527 5.57177 24.6512 5.57177 25.0667C5.57177 25.2744 5.65563 25.4737 5.80491 25.6206C5.95418 25.7675 6.15664 25.85 6.36774 25.85H35.0226C35.2337 25.85 35.4361 25.7675 35.5854 25.6206C35.7347 25.4737 35.8185 25.2744 35.8185 25.0667C35.8185 24.6512 35.9863 24.2527 36.2848 23.9589C36.5834 23.6651 36.9883 23.5 37.4105 23.5C37.6216 23.5 37.824 23.4175 37.9733 23.2706C38.1226 23.1237 38.2064 22.9244 38.2064 22.7167V13.3167C38.2064 13.1089 38.1226 12.9097 37.9733 12.7628C37.824 12.6159 37.6216 12.5333 37.4105 12.5333C36.9883 12.5333 36.5834 12.3683 36.2848 12.0745C35.9863 11.7807 35.8185 11.3822 35.8185 10.9667C35.8185 10.7589 35.7347 10.5597 35.5854 10.4128C35.4361 10.2659 35.2337 10.1833 35.0226 10.1833H6.36774C6.15664 10.1833 5.95418 10.2659 5.80491 10.4128C5.65563 10.5597 5.57177 10.7589 5.57177 10.9667C5.57177 11.3822 5.40405 11.7807 5.1055 12.0745C4.80696 12.3683 4.40204 12.5333 3.97984 12.5333C3.76873 12.5333 3.56628 12.6159 3.417 12.7628C3.26773 12.9097 3.18387 13.1089 3.18387 13.3167V22.7167C3.18387 22.9244 3.26773 23.1237 3.417 23.2706C3.56628 23.4175 3.76873 23.5 3.97984 23.5ZM14.3274 18.0167C14.3274 16.7773 14.7009 15.5657 15.4006 14.5351C16.1003 13.5046 17.0948 12.7013 18.2583 12.227C19.4219 11.7527 20.7022 11.6286 21.9374 11.8704C23.1727 12.1122 24.3073 12.7091 25.1978 13.5855C26.0884 14.4619 26.6948 15.5785 26.9405 16.7941C27.1862 18.0097 27.0601 19.2697 26.5782 20.4148C26.0962 21.5599 25.2801 22.5386 24.2329 23.2272C23.1857 23.9158 21.9546 24.2833 20.6952 24.2833C19.0063 24.2833 17.3867 23.6231 16.1925 22.4479C14.9983 21.2727 14.3274 19.6787 14.3274 18.0167ZM34.3261 11.75C34.4693 12.2919 34.7569 12.7863 35.1592 13.1822C35.5615 13.5781 36.0639 13.8612 36.6145 14.0021V22.0313C36.0639 22.1722 35.5615 22.4553 35.1592 22.8512C34.7569 23.2471 34.4693 23.7415 34.3261 24.2833H25.4511C26.4449 23.5572 27.2522 22.6123 27.8084 21.5241C28.3646 20.436 28.6543 19.2348 28.6543 18.0167C28.6543 16.7986 28.3646 15.5974 27.8084 14.5092C27.2522 13.4211 26.4449 12.4761 25.4511 11.75H34.3261ZM4.7758 14.0021C5.32641 13.8612 5.8288 13.5781 6.23109 13.1822C6.63339 12.7863 6.92099 12.2919 7.06421 11.75H15.9392C14.9455 12.4761 14.1381 13.4211 13.5819 14.5092C13.0257 15.5974 12.736 16.7986 12.736 18.0167C12.736 19.2348 13.0257 20.436 13.5819 21.5241C14.1381 22.6123 14.9455 23.5572 15.9392 24.2833H7.06421C6.92099 23.7415 6.63339 23.2471 6.23109 22.8512C5.8288 22.4553 5.32641 22.1722 4.7758 22.0313V14.0021Z"
      fill="white" />
    <path
      d="M48.554 0H8.75564C8.54454 0 8.34208 0.0825295 8.19281 0.229433C8.04354 0.376336 7.95968 0.57558 7.95968 0.783333V7.05H0.795968C0.584864 7.05 0.382406 7.13253 0.233134 7.27943C0.0838606 7.42634 0 7.62558 0 7.83333V28.2C0 28.4078 0.0838606 28.607 0.233134 28.7539C0.382406 28.9008 0.584864 28.9833 0.795968 28.9833H40.5944C40.8055 28.9833 41.0079 28.9008 41.1572 28.7539C41.3065 28.607 41.3903 28.4078 41.3903 28.2V21.9333H48.554C48.7651 21.9333 48.9676 21.8508 49.1169 21.7039C49.2661 21.557 49.35 21.3578 49.35 21.15V0.783333C49.35 0.57558 49.2661 0.376336 49.1169 0.229433C48.9676 0.0825295 48.7651 0 48.554 0ZM39.7984 27.4167H1.59194V8.61667H39.7984V27.4167ZM33.6107 7.05H23.6989C24.2925 6.31698 25.0463 5.72504 25.9043 5.31821C26.7623 4.91137 27.7024 4.7001 28.6548 4.7001C29.6072 4.7001 30.5474 4.91137 31.4054 5.31821C32.2634 5.72504 33.0172 6.31698 33.6107 7.05ZM21.7817 7.05H12.7355V6.95208C13.2861 6.81114 13.7885 6.5281 14.1908 6.13219C14.5931 5.73628 14.8807 5.24187 15.0239 4.7H23.8959C23.0369 5.33449 22.3176 6.13396 21.7817 7.05ZM35.527 7.05C34.992 6.1339 34.2733 5.33439 33.4147 4.7H42.2858C42.429 5.24187 42.7166 5.73628 43.1189 6.13219C43.5212 6.5281 44.0236 6.81114 44.5742 6.95208V14.9812C44.0236 15.1222 43.5212 15.4052 43.1189 15.8011C42.7166 16.197 42.429 16.6915 42.2858 17.2333H41.3903V7.83333C41.3903 7.62558 41.3065 7.42634 41.1572 7.27943C41.0079 7.13253 40.8055 7.05 40.5944 7.05H35.527ZM47.7581 20.3667H41.3903V18.8H42.9823C43.1934 18.8 43.3958 18.7175 43.5451 18.5706C43.6944 18.4237 43.7782 18.2244 43.7782 18.0167C43.7782 17.6012 43.9459 17.2027 44.2445 16.9089C44.543 16.6151 44.948 16.45 45.3702 16.45C45.5813 16.45 45.7837 16.3675 45.933 16.2206C46.0823 16.0737 46.1661 15.8744 46.1661 15.6667V6.26667C46.1661 6.05891 46.0823 5.85967 45.933 5.71277C45.7837 5.56586 45.5813 5.48333 45.3702 5.48333C44.948 5.48333 44.543 5.31827 44.2445 5.02447C43.9459 4.73066 43.7782 4.33217 43.7782 3.91667C43.7782 3.70891 43.6944 3.50967 43.5451 3.36277C43.3958 3.21586 43.1934 3.13333 42.9823 3.13333H14.3274C14.1163 3.13333 13.9139 3.21586 13.7646 3.36277C13.6153 3.50967 13.5315 3.70891 13.5315 3.91667C13.5315 4.33217 13.3637 4.73066 13.0652 5.02447C12.7666 5.31827 12.3617 5.48333 11.9395 5.48333C11.7284 5.48333 11.526 5.56586 11.3767 5.71277C11.2274 5.85967 11.1435 6.05891 11.1435 6.26667V7.05H9.55161V1.56667H47.7581V20.3667Z"
      fill="white" />
    <path
      d="M21.4911 13.3167V12.5333H19.8992V13.3167C19.2659 13.3167 18.6585 13.5642 18.2107 14.005C17.7629 14.4457 17.5113 15.0434 17.5113 15.6667V16.45C17.5113 17.0733 17.7629 17.671 18.2107 18.1117C18.6585 18.5524 19.2659 18.8 19.8992 18.8V21.15C19.6881 21.15 19.4856 21.0675 19.3364 20.9206C19.1871 20.7737 19.1032 20.5744 19.1032 20.3667H17.5113C17.5113 20.9899 17.7629 21.5876 18.2107 22.0284C18.6585 22.4691 19.2659 22.7167 19.8992 22.7167V23.5H21.4911V22.7167C22.1244 22.7167 22.7318 22.4691 23.1796 22.0284C23.6275 21.5876 23.879 20.9899 23.879 20.3667V19.5833C23.879 18.9601 23.6275 18.3623 23.1796 17.9216C22.7318 17.4809 22.1244 17.2333 21.4911 17.2333V14.8833C21.7022 14.8833 21.9047 14.9659 22.054 15.1128C22.2032 15.2597 22.2871 15.4589 22.2871 15.6667V16.45H23.879V15.6667C23.879 15.0434 23.6275 14.4457 23.1796 14.005C22.7318 13.5642 22.1244 13.3167 21.4911 13.3167ZM22.2871 19.5833V20.3667C22.2871 20.5744 22.2032 20.7737 22.054 20.9206C21.9047 21.0675 21.7022 21.15 21.4911 21.15V18.8C21.7022 18.8 21.9047 18.8825 22.054 19.0294C22.2032 19.1763 22.2871 19.3756 22.2871 19.5833ZM19.8992 17.2333C19.6881 17.2333 19.4856 17.1508 19.3364 17.0039C19.1871 16.857 19.1032 16.6577 19.1032 16.45V15.6667C19.1032 15.4589 19.1871 15.2597 19.3364 15.1128C19.4856 14.9659 19.6881 14.8833 19.8992 14.8833V17.2333Z"
      fill="white" />
  </g>
  <defs>
    <clipPath id="clip0_44_179">
      <rect width="49.35" height="47" fill="white" />
    </clipPath>
  </defs>
</svg>
