<svg width="49" height="49" viewBox="0 0 49 49" fill="none" xmlns="http://www.w3.org/2000/svg">
  <g clip-path="url(#clip0_50_38)">
    <path
      d="M45.7261 37.7735C46.9398 36.897 47.8789 35.6931 48.4338 34.3026C48.9886 32.9121 49.1361 31.3924 48.8592 29.9211C48.5822 28.4498 47.8922 27.0878 46.8698 25.9941C45.8474 24.9005 44.5348 24.1205 43.0854 23.7453C44.2806 22.968 45.2443 21.8831 45.8752 20.6046C46.506 19.326 46.7808 17.9011 46.6705 16.4797C46.5602 15.0583 46.069 13.6928 45.2485 12.5269C44.428 11.3609 43.3086 10.4376 42.0078 9.85395C40.707 9.27029 39.2731 9.04788 37.8566 9.2101C36.4402 9.37232 35.0936 9.91317 33.9585 10.7758C32.8233 11.6384 31.9416 12.7909 31.4059 14.1122C30.8703 15.4334 30.7005 16.8746 30.9145 18.2842C29.5868 17.4928 28.0561 17.1084 26.5121 17.1785C24.968 17.2486 23.4785 17.7703 22.228 18.6788C20.9776 19.5872 20.0212 20.8427 19.4773 22.2895C18.9334 23.7362 18.826 25.3108 19.1684 26.818C19.5107 28.3253 20.2878 29.699 21.4033 30.7689C22.5187 31.8387 23.9236 32.5578 25.4438 32.837C26.964 33.1162 28.5328 32.9432 29.9556 32.3395C31.3784 31.7357 32.5929 30.7278 33.4484 29.4406C33.0551 30.9528 33.1238 32.5482 33.6455 34.0211C34.1672 35.494 35.1181 36.7768 36.3756 37.7044H26.7929C26.705 37.3521 26.5381 37.0244 26.3049 36.7461L21.9394 31.6584C21.8652 31.5716 21.773 31.502 21.6694 31.4543C21.5657 31.4065 21.4529 31.3818 21.3387 31.3818H12.6452V30.5915C12.6452 30.3819 12.5619 30.1808 12.4137 30.0326C12.2655 29.8844 12.0644 29.8011 11.8548 29.8011H0.790323C0.580716 29.8011 0.379694 29.8844 0.23148 30.0326C0.0832659 30.1808 0 30.3819 0 30.5915V47.9786C0 48.1882 0.0832659 48.3892 0.23148 48.5374C0.379694 48.6856 0.580716 48.7689 0.790323 48.7689H7.1129C7.32251 48.7689 7.52353 48.6856 7.67175 48.5374C7.81996 48.3892 7.90323 48.1882 7.90323 47.9786V47.1882H11.8548C12.0644 47.1882 12.2655 47.105 12.4137 46.9568C12.5619 46.8085 12.6452 46.6075 12.6452 46.3979V45.6076H17.9403L22.4847 48.6365C22.6135 48.7222 22.7646 48.7683 22.9194 48.7689C22.9761 48.7689 23.0328 48.763 23.0883 48.7511L48.3786 43.2188C48.5548 43.1803 48.7125 43.0827 48.8255 42.9421C48.9385 42.8016 49.0001 42.6266 49 42.4463V41.656C48.9975 40.7273 48.668 39.8291 48.0693 39.1192C47.4706 38.4092 46.641 37.9328 45.7261 37.7735ZM6.32258 47.1882H1.58065V31.3818H6.32258V47.1882ZM11.0645 45.6076H7.90323V31.3818H11.0645V45.6076ZM38.7258 10.8334C39.9763 10.8334 41.1987 11.2042 42.2384 11.8989C43.2782 12.5937 44.0886 13.5811 44.5671 14.7364C45.0457 15.8917 45.1709 17.163 44.9269 18.3895C44.6829 19.6159 44.0808 20.7425 43.1965 21.6267C42.3123 22.5109 41.1857 23.1131 39.9593 23.3571C38.7328 23.601 37.4616 23.4758 36.3063 22.9973C35.151 22.5187 34.1635 21.7084 33.4688 20.6686C32.774 19.6289 32.4032 18.4065 32.4032 17.156C32.4032 15.4791 33.0694 13.871 34.2551 12.6852C35.4408 11.4995 37.049 10.8334 38.7258 10.8334ZM26.871 31.3818C25.6205 31.3818 24.3981 31.011 23.3583 30.3162C22.3186 29.6215 21.5082 28.6341 21.0297 27.4788C20.5511 26.3235 20.4259 25.0522 20.6699 23.8257C20.9138 22.5993 21.516 21.4727 22.4002 20.5885C23.2845 19.7042 24.411 19.1021 25.6375 18.8581C26.864 18.6142 28.1352 18.7394 29.2905 19.2179C30.4458 19.6964 31.4333 20.5068 32.128 21.5466C32.8227 22.5863 33.1936 23.8087 33.1936 25.0592C33.1936 26.7361 32.5274 28.3442 31.3417 29.5299C30.156 30.7157 28.5478 31.3818 26.871 31.3818ZM34.6853 23.935C35.3254 24.319 36.0175 24.6092 36.7401 24.7964C35.8635 25.3785 35.1113 26.129 34.5272 27.0044C34.794 26.0036 34.8492 24.9582 34.6892 23.935H34.6853ZM34.7742 31.3818C34.7742 30.1313 35.145 28.9089 35.8397 27.8691C36.5345 26.8294 37.5219 26.019 38.6772 25.5405C39.8325 25.0619 41.1038 24.9367 42.3302 25.1807C43.5567 25.4247 44.6833 26.0268 45.5675 26.911C46.4517 27.7953 47.0539 28.9219 47.2979 30.1483C47.5418 31.3748 47.4166 32.646 46.9381 33.8013C46.4595 34.9566 45.6492 35.9441 44.6094 36.6388C43.5697 37.3336 42.3473 37.7044 41.0968 37.7044C39.4199 37.7044 37.8118 37.0382 36.626 35.8525C35.4403 34.6668 34.7742 33.0586 34.7742 31.3818ZM47.4194 41.814L23.0774 47.1349L18.6151 44.1593C18.4854 44.073 18.3332 44.027 18.1774 44.0269H12.6452V32.9624H20.9752L25.0997 37.7745C25.2227 37.9178 25.2903 38.1004 25.2903 38.2892V39.285C25.2903 39.4946 25.2071 39.6956 25.0588 39.8439C24.9106 39.9921 24.7096 40.0753 24.5 40.0753H23.5743C23.4705 40.0754 23.3677 40.055 23.2718 40.0154C23.1758 39.9757 23.0886 39.9175 23.0152 39.8442L19.5269 36.3549L18.4086 37.4732L21.8979 40.9644C22.118 41.1853 22.3798 41.3601 22.6681 41.4788C22.9565 41.5976 23.2655 41.6578 23.5773 41.656H24.5C25.1288 41.656 25.7319 41.4062 26.1765 40.9615C26.6212 40.5169 26.871 39.9138 26.871 39.285H45.0484C45.6772 39.285 46.2803 39.5348 46.7249 39.9795C47.1696 40.4241 47.4194 41.0272 47.4194 41.656V41.814Z"
      fill="white" />
    <path
      d="M41.8871 26.6398V25.8495H40.3065V26.6398C39.6776 26.6398 39.0746 26.8896 38.6299 27.3343C38.1853 27.7789 37.9355 28.382 37.9355 29.0108V29.8011C37.9355 30.4299 38.1853 31.033 38.6299 31.4776C39.0746 31.9223 39.6776 32.1721 40.3065 32.1721V34.543C40.0968 34.543 39.8958 34.4598 39.7476 34.3116C39.5994 34.1633 39.5161 33.9623 39.5161 33.7527V32.9624H37.9355V33.7527C37.9355 34.3815 38.1853 34.9846 38.6299 35.4292C39.0746 35.8739 39.6776 36.1237 40.3065 36.1237V36.914H41.8871V36.1237C42.5159 36.1237 43.119 35.8739 43.5636 35.4292C44.0083 34.9846 44.2581 34.3815 44.2581 33.7527V32.9624C44.2581 32.3336 44.0083 31.7305 43.5636 31.2859C43.119 30.8412 42.5159 30.5914 41.8871 30.5914V28.2205C42.0967 28.2205 42.2977 28.3037 42.4459 28.4519C42.5942 28.6001 42.6774 28.8012 42.6774 29.0108V29.8011H44.2581V29.0108C44.2581 28.382 44.0083 27.7789 43.5636 27.3343C43.119 26.8896 42.5159 26.6398 41.8871 26.6398ZM42.6774 32.9624V33.7527C42.6774 33.9623 42.5942 34.1633 42.4459 34.3116C42.2977 34.4598 42.0967 34.543 41.8871 34.543V32.1721C42.0967 32.1721 42.2977 32.2553 42.4459 32.4035C42.5942 32.5518 42.6774 32.7528 42.6774 32.9624ZM40.3065 30.5914C40.0968 30.5914 39.8958 30.5082 39.7476 30.3599C39.5994 30.2117 39.5161 30.0107 39.5161 29.8011V29.0108C39.5161 28.8012 39.5994 28.6001 39.7476 28.4519C39.8958 28.3037 40.0968 28.2205 40.3065 28.2205V30.5914Z"
      fill="white" />
    <path
      d="M27.6613 20.3172V19.5269H26.0806V20.3172C25.4518 20.3172 24.8488 20.567 24.4041 21.0116C23.9595 21.4563 23.7097 22.0593 23.7097 22.6881V23.4785C23.7097 24.1073 23.9595 24.7104 24.4041 25.155C24.8488 25.5996 25.4518 25.8494 26.0806 25.8494V28.2204C25.871 28.2204 25.67 28.1371 25.5218 27.9889C25.3736 27.8407 25.2903 27.6397 25.2903 27.4301V26.6398H23.7097V27.4301C23.7097 28.0589 23.9595 28.662 24.4041 29.1066C24.8488 29.5513 25.4518 29.801 26.0806 29.801V30.5914H27.6613V29.801C28.2901 29.801 28.8932 29.5513 29.3378 29.1066C29.7825 28.662 30.0323 28.0589 30.0323 27.4301V26.6398C30.0323 26.0109 29.7825 25.4079 29.3378 24.9632C28.8932 24.5186 28.2901 24.2688 27.6613 24.2688V21.8978C27.8709 21.8978 28.0719 21.9811 28.2201 22.1293C28.3683 22.2775 28.4516 22.4785 28.4516 22.6881V23.4785H30.0323V22.6881C30.0323 22.0593 29.7825 21.4563 29.3378 21.0116C28.8932 20.567 28.2901 20.3172 27.6613 20.3172ZM28.4516 26.6398V27.4301C28.4516 27.6397 28.3683 27.8407 28.2201 27.9889C28.0719 28.1371 27.8709 28.2204 27.6613 28.2204V25.8494C27.8709 25.8494 28.0719 25.9327 28.2201 26.0809C28.3683 26.2291 28.4516 26.4302 28.4516 26.6398ZM26.0806 24.2688C25.871 24.2688 25.67 24.1855 25.5218 24.0373C25.3736 23.8891 25.2903 23.6881 25.2903 23.4785V22.6881C25.2903 22.4785 25.3736 22.2775 25.5218 22.1293C25.67 21.9811 25.871 21.8978 26.0806 21.8978V24.2688Z"
      fill="white" />
    <path
      d="M37.9355 21.8979V22.6882H39.5161V21.8979C40.1449 21.8979 40.748 21.6481 41.1927 21.2034C41.6373 20.7588 41.8871 20.1557 41.8871 19.5269V18.7366C41.8871 18.1077 41.6373 17.5047 41.1927 17.06C40.748 16.6154 40.1449 16.3656 39.5161 16.3656V13.9946C39.7257 13.9946 39.9268 14.0779 40.075 14.2261C40.2232 14.3743 40.3064 14.5753 40.3064 14.7849V15.5753H41.8871V14.7849C41.8871 14.1561 41.6373 13.5531 41.1927 13.1084C40.748 12.6638 40.1449 12.414 39.5161 12.414V11.6237H37.9355V12.414C37.3067 12.414 36.7036 12.6638 36.259 13.1084C35.8143 13.5531 35.5645 14.1561 35.5645 14.7849V15.5753C35.5645 16.2041 35.8143 16.8072 36.259 17.2518C36.7036 17.6964 37.3067 17.9462 37.9355 17.9462V20.3172C37.7259 20.3172 37.5249 20.2339 37.3766 20.0857C37.2284 19.9375 37.1452 19.7365 37.1452 19.5269V18.7366H35.5645V19.5269C35.5645 20.1557 35.8143 20.7588 36.259 21.2034C36.7036 21.6481 37.3067 21.8979 37.9355 21.8979ZM37.1452 15.5753V14.7849C37.1452 14.5753 37.2284 14.3743 37.3766 14.2261C37.5249 14.0779 37.7259 13.9946 37.9355 13.9946V16.3656C37.7259 16.3656 37.5249 16.2823 37.3766 16.1341C37.2284 15.9859 37.1452 15.7849 37.1452 15.5753ZM39.5161 17.9462C39.7257 17.9462 39.9268 18.0295 40.075 18.1777C40.2232 18.3259 40.3064 18.527 40.3064 18.7366V19.5269C40.3064 19.7365 40.2232 19.9375 40.075 20.0857C39.9268 20.2339 39.7257 20.3172 39.5161 20.3172V17.9462Z"
      fill="white" />
    <path
      d="M7.90323 28.2204H9.48387C9.49009 25.6349 8.91154 23.0813 7.7915 20.7509C6.67146 18.4205 5.03894 16.3736 3.01607 14.7632L1.28427 13.3772L0.296371 14.6121L2.02915 15.9951C3.86643 17.4583 5.34912 19.318 6.36632 21.4351C7.38353 23.5521 7.90893 25.8717 7.90323 28.2204Z"
      fill="white" />
    <path
      d="M4.9731 10.6022C6.40753 12.0288 7.54479 13.7257 8.31906 15.5947C9.09333 17.4638 9.48923 19.4678 9.48386 21.4909V21.8979H11.0645V21.4909C11.0703 19.2601 10.6337 17.0504 9.78009 14.9895C8.92648 12.9285 7.67275 11.0573 6.09141 9.48389L4.9731 10.6022Z"
      fill="white" />
    <path d="M4.74193 2.93018H6.32257V4.51082H4.74193V2.93018Z" fill="white" />
    <path d="M6.32259 4.51074H7.90323V6.09139H6.32259V4.51074Z" fill="white" />
    <path d="M4.74193 6.09143H6.32257V7.67208H4.74193V6.09143Z" fill="white" />
    <path d="M3.16129 4.51074H4.74193V6.09139H3.16129V4.51074Z" fill="white" />
    <path d="M12.6452 21.8978H14.2258V23.4785H12.6452V21.8978Z" fill="white" />
    <path d="M14.2258 23.4785H15.8064V25.0592H14.2258V23.4785Z" fill="white" />
    <path d="M12.6452 25.0592H14.2258V26.6398H12.6452V25.0592Z" fill="white" />
    <path d="M11.0645 23.4785H12.6452V25.0592H11.0645V23.4785Z" fill="white" />
    <path
      d="M19.7581 18.7365C19.7527 16.3881 20.2782 14.0689 21.2954 11.9522C22.3126 9.83555 23.7951 7.97621 25.6321 6.51321L27.3649 5.13014L26.377 3.89526L24.6452 5.27833C22.6222 6.88879 20.9896 8.93591 19.8696 11.2665C18.7495 13.5971 18.1711 16.1508 18.1774 18.7365H19.7581Z"
      fill="white" />
    <path
      d="M18.1774 12.007C18.172 9.98392 18.5679 7.97989 19.3422 6.11086C20.1165 4.24182 21.2537 2.54491 22.6882 1.11831L21.5699 0C19.9885 1.57337 18.7348 3.44464 17.8812 5.50558C17.0276 7.56653 16.591 9.77626 16.5968 12.007V12.414H18.1774V12.007Z"
      fill="white" />
    <path d="M26.0806 10.8334H27.6613V12.414H26.0806V10.8334Z" fill="white" />
    <path d="M24.5 12.4139H26.0806V13.9946H24.5V12.4139Z" fill="white" />
    <path d="M26.0806 13.9946H27.6613V15.5753H26.0806V13.9946Z" fill="white" />
    <path d="M27.6613 12.4139H29.2419V13.9946H27.6613V12.4139Z" fill="white" />
    <path d="M13.4355 12.4139H15.0161V13.9946H13.4355V12.4139Z" fill="white" />
    <path d="M11.8548 13.9946H13.4355V15.5753H11.8548V13.9946Z" fill="white" />
    <path d="M13.4355 15.5753H15.0161V17.156H13.4355V15.5753Z" fill="white" />
    <path d="M15.0161 13.9946H16.5968V15.5753H15.0161V13.9946Z" fill="white" />
  </g>
  <defs>
    <clipPath id="clip0_50_38">
      <rect width="49" height="48.7688" fill="white" />
    </clipPath>
  </defs>
</svg>
