<svg width="42" height="45" viewBox="0 0 42 45" fill="none" xmlns="http://www.w3.org/2000/svg">
  <g clip-path="url(#clip0_48_2)">
    <path
      d="M12.9955 29.9257C12.9955 33.3311 12.9955 36.7027 12.9955 40.0743C13.012 40.5617 13.0038 41.0495 12.9707 41.5361C12.8018 43.205 11.6712 44.2658 9.99776 44.3153C8.9482 44.3446 7.8964 44.3334 6.8446 44.3153C4.88739 44.2861 3.77027 43.2095 3.75225 41.241C3.72072 37.9032 3.74099 34.5653 3.74099 31.2275V30.0586C3.6036 29.9572 3.54956 29.8806 3.48425 29.8716C0.630642 29.4685 0.0022583 28.7455 0.0022583 25.8604C0.0022583 22.8604 0.0022583 19.8604 0.0022583 16.8514C0.0022583 13.4572 1.90091 11.5856 5.31082 11.5743C7.44821 11.5743 9.59009 11.5518 11.723 11.5743C14.7117 11.6126 16.6329 13.5428 16.6509 16.5293C16.6712 19.6419 16.6509 22.7568 16.6509 25.8694C16.6532 28.777 16.036 29.4955 12.9955 29.9257ZM5.60361 35.2252C5.60361 37.1757 5.62163 39.1284 5.60361 41.0811C5.60361 41.9955 5.99099 42.3874 6.89414 42.3559C7.64189 42.3288 8.39415 42.3559 9.1464 42.3559C11.0473 42.3559 11.1126 42.2928 11.1126 40.4009C11.1126 36.7973 11.1126 33.1937 11.1126 29.5901C11.1126 28.0608 11.2905 27.8897 12.7703 27.8806C12.9595 27.8806 13.1464 27.8806 13.3333 27.8806C14.5743 27.8581 14.8243 27.6104 14.8266 26.3356C14.8266 23.1059 14.8424 19.8784 14.8266 16.6509C14.8153 14.6599 13.6487 13.509 11.6734 13.4978C9.56983 13.4978 7.46848 13.4978 5.36713 13.4978C2.93244 13.4978 1.8874 14.5383 1.87839 16.9955C1.86713 19.8851 1.87839 22.777 1.87839 25.6667C1.87839 27.8446 1.87838 27.8536 4.06757 27.8829C5.37613 27.9009 5.61036 28.1374 5.61712 29.491C5.61712 31.3964 5.60136 33.3108 5.60361 35.2252Z"
      fill="white" />
    <path
      d="M30.2635 2.41437C31.8401 0.891849 33.6644 0.0337445 35.8559 0.29951C38.6937 0.644105 40.6239 2.2432 41.5518 4.91888C42.4797 7.59455 41.9414 10.0991 40.0383 12.2409C38.8671 13.5563 37.6104 14.7973 36.3896 16.0698C34.6734 17.8558 32.9392 19.6216 31.2477 21.4279C30.5721 22.1441 30.0203 22.2702 29.286 21.4955C26.3469 18.3896 23.3423 15.3446 20.4279 12.2184C18.5068 10.1554 17.9865 7.67789 18.8851 5.01122C19.7838 2.34455 21.6824 0.711667 24.5158 0.315271C26.1338 0.0940438 27.7741 0.517045 29.0833 1.4932C29.491 1.76798 29.8491 2.08554 30.2635 2.41437ZM30.4887 19.4504C33.0788 16.7477 35.8716 13.8806 38.6194 10.9684C39.106 10.4714 39.4888 9.88234 39.7453 9.23572C40.0018 8.5891 40.1269 7.89786 40.1132 7.20236C40.0996 6.50686 39.9475 5.82104 39.6659 5.18497C39.3843 4.54889 38.9787 3.97531 38.473 3.4977C36.446 1.57653 33.5946 1.78824 31.3874 4.02473C30.3423 5.08554 30.1036 5.09906 29.0495 3.9932C28.1104 3.01347 27.0428 2.30176 25.6532 2.21392C23.5518 2.07654 21.8018 3.12834 20.8514 5.06978C20.4025 6.00487 20.244 7.05293 20.3961 8.07894C20.5482 9.10495 21.0041 10.0619 21.705 10.8265C23.1487 12.4031 24.6194 13.9527 26.1419 15.4504C27.5338 16.8108 29.0045 18.0833 30.4977 19.4504H30.4887Z"
      fill="white" />
    <path
      d="M8.31982 9.65318C5.76127 9.63967 3.74775 7.49552 3.76127 4.80633C3.77478 2.11714 5.86486 -0.0337574 8.38513 2.63758e-05C10.9054 0.0338102 13.0225 2.29733 12.9932 4.8739C12.955 7.49778 10.8356 9.66444 8.31982 9.65318ZM11.0969 4.84237C11.0969 3.21849 9.86486 1.95498 8.3018 1.97525C6.77703 1.99777 5.62163 3.223 5.61712 4.8266C5.61262 6.4302 6.74324 7.64868 8.28603 7.67571C9.88063 7.70048 11.0833 6.48877 11.0878 4.84237H11.0969Z"
      fill="white" />
  </g>
  <defs>
    <clipPath id="clip0_48_2">
      <rect width="42" height="44.3333" fill="white" />
    </clipPath>
  </defs>
</svg>
