<svg width="40" height="47" viewBox="0 0 40 47" fill="none" xmlns="http://www.w3.org/2000/svg">
  <g clip-path="url(#clip0_50_47)">
    <path
      d="M32.7468 8.71471C32.7627 11.7306 32.8669 14.7443 31.8926 17.6786C30.0602 23.1969 26.4824 27.095 21.159 29.373C20.5039 29.6281 19.7776 29.6321 19.1197 29.3843C12.0954 26.2573 8.12553 20.869 7.56359 13.1695C7.337 10.0879 7.51827 6.9813 7.47975 3.87928C7.46842 3.04996 7.82643 2.63756 8.6127 2.46535C12.2925 1.66095 15.9678 0.836166 19.6499 0.0363016C19.9807 -0.0267884 20.3209 -0.0206157 20.6492 0.0544292C24.2565 0.838432 27.8548 1.66322 31.4666 2.4291C32.4206 2.63076 32.7876 3.09754 32.7536 4.06508C32.7061 5.61722 32.7468 7.1671 32.7468 8.71471ZM9.32646 9.35823C9.32646 10.3394 9.29474 11.3228 9.32646 12.3039C9.59157 19.1809 12.8431 24.1523 18.9044 27.3472C19.7609 27.8004 20.4906 27.7732 21.338 27.3472C26.2006 24.8547 29.5383 21.0276 30.4402 15.6416C31.0361 12.0682 30.7936 8.35217 30.8729 4.69727C30.8729 4.4888 30.4311 4.13985 30.1433 4.07188C27.8004 3.50767 25.4166 3.08168 23.0964 2.43589C21.1003 1.88697 18.9918 1.89717 17.0011 2.46535C14.7352 3.06355 12.4557 3.54845 10.1671 4.01976C9.5168 4.15571 9.28567 4.40723 9.3038 5.06208C9.35365 6.48733 9.32646 7.92391 9.32646 9.35823Z"
      fill="white" />
    <path
      d="M7.37552 30.3359C9.74112 28.2467 11.2434 28.394 12.9496 30.61C13.9625 31.9288 14.9663 33.2521 15.9769 34.5708C17.0245 35.8765 17.5981 37.4989 17.6038 39.1729C17.6038 41.1367 17.6038 43.1005 17.6038 45.0642C17.6038 45.7078 17.5449 46.383 16.7382 46.3875C15.8795 46.3875 15.7775 45.6942 15.7798 45.0053C15.7798 43.1178 15.9225 41.2122 15.7254 39.3406C15.5852 38.0854 15.1781 36.8747 14.5312 35.7899C13.5818 34.2151 12.3333 32.8193 11.2162 31.3442C10.763 30.7301 10.1784 30.3653 9.49413 30.925C8.80983 31.4847 9.04095 32.1169 9.52359 32.7128C9.92465 33.2158 10.4096 33.6871 10.6565 34.2581C10.8288 34.6524 10.6701 35.194 10.6565 35.6698C10.192 35.5769 9.53719 35.6471 9.297 35.3662C8.04741 33.91 6.88451 32.3817 5.81431 30.789C5.39285 30.1455 5.26369 29.2278 5.23877 28.428C5.16626 26.0488 5.23876 23.6696 5.19571 21.2858C5.19571 20.8191 5.11641 20.2526 4.84677 19.9263C4.62018 19.6544 3.95627 19.4459 3.67303 19.5864C3.45568 19.7055 3.26573 19.8689 3.11546 20.066C2.9652 20.2631 2.85795 20.4896 2.80066 20.7307C2.52195 22.8267 2.34747 24.9362 2.15261 27.0412C2.06424 27.9793 2.06424 28.9355 1.87843 29.8555C1.63825 31.0474 2.02798 31.9515 2.75081 32.8669C5.04617 35.7718 7.23956 38.7582 9.54852 41.6427C10.5886 42.9433 10.2283 44.3618 10.1331 45.7485C10.115 45.9955 9.53719 46.3966 9.24942 46.3717C8.96165 46.3467 8.7124 45.8754 8.44955 45.5945C8.42916 45.5741 8.43143 45.5197 8.43823 45.4857C8.9186 43.3693 7.53187 42.0393 6.39891 40.5891C4.77879 38.4999 3.25157 36.3337 1.54987 34.3148C0.292297 32.8216 -0.208462 31.2762 0.0611806 29.3298C0.462246 26.4159 0.634453 23.4702 0.951679 20.5426C1.15108 18.7118 2.43131 17.597 4.11261 17.6649C5.75539 17.7397 6.97672 19.0109 7.01297 20.8372C7.06509 23.3297 7.01297 25.8222 7.04469 28.3147C7.06282 28.897 7.2373 29.4997 7.37552 30.3359Z"
      fill="white" />
    <path
      d="M32.5588 30.3155C32.7174 29.5723 32.9326 29.0126 32.9394 28.4507C32.978 25.9582 32.9394 23.4657 32.9598 20.9732C32.9712 19.0381 34.1812 17.6899 35.9214 17.6469C37.6231 17.6038 38.8897 18.8297 39.0687 20.6922C39.3587 23.7353 39.6171 26.7807 39.9569 29.817C40.0552 30.5258 40.0037 31.2474 39.8058 31.9351C39.6079 32.6228 39.2681 33.2613 38.8081 33.8095C36.5513 36.6449 34.3435 39.5151 32.1849 42.42C31.8359 42.8867 31.7317 43.5665 31.6162 44.167C31.5233 44.6406 31.7 45.1934 31.53 45.6194C31.4376 45.8056 31.3041 45.9684 31.1396 46.0955C30.9752 46.2227 30.7841 46.3109 30.5806 46.3536C30.354 46.3808 29.8374 45.8687 29.8284 45.5854C29.7694 44.0356 29.6018 42.5401 30.7891 41.1239C33.1524 38.3323 35.3209 35.3685 37.4894 32.4251C37.9075 31.8621 38.1296 31.1776 38.1216 30.4764C37.895 27.2407 37.5483 24.014 37.2401 20.7829C37.1676 20.0079 36.8005 19.446 35.9712 19.489C35.0943 19.5321 34.7748 20.1325 34.7771 20.9687C34.7771 23.4612 34.8723 25.9537 34.734 28.4461C34.6468 29.4789 34.3118 30.4754 33.7574 31.351C32.9077 32.7242 31.8133 33.9432 30.8367 35.2416C30.4243 35.7899 29.8737 36.1819 29.3525 35.62C29.1101 35.3549 29.2007 34.5845 29.3978 34.163C29.6765 33.5626 30.2022 33.0777 30.6056 32.5316C31.0089 31.9855 31.0587 31.3782 30.4855 30.9228C29.9122 30.4673 29.3367 30.6101 28.8993 31.1743C27.5738 32.9145 26.1644 34.6049 24.9952 36.4493C24.465 37.2877 24.261 38.4275 24.1931 39.4494C24.0707 41.3301 24.1477 43.2221 24.1613 45.1141C24.1613 45.7939 24.0344 46.3966 23.255 46.3944C22.4755 46.3921 22.3305 45.7531 22.3486 45.096C22.4053 42.6828 22.3917 40.2674 22.5571 37.8632C22.6491 36.999 22.9611 36.1729 23.4634 35.4637C24.7912 33.5376 26.1825 31.6592 27.6689 29.8465C28.7475 28.5232 30.4855 28.4983 31.7997 29.6199C31.9832 29.7921 32.169 29.9666 32.5588 30.3155Z"
      fill="white" />
    <path
      d="M29.3593 10.5523C29.57 13.4685 29.1055 16.7813 27.3019 19.8244C25.843 22.3605 23.6684 24.4098 21.0502 25.7158C20.7529 25.8435 20.4323 25.9084 20.1087 25.9065C19.7851 25.9045 19.4654 25.8357 19.1695 25.7044C14.1846 23.0103 11.4156 18.8161 10.8922 13.1581C10.8288 12.4783 10.822 11.7986 11.7329 11.7351C12.5758 11.683 12.6528 12.3469 12.7049 12.9723C13.0969 17.6197 15.3017 21.1545 19.199 23.681C19.8561 24.107 20.375 24.116 21.0389 23.681C25.2376 20.9392 27.4718 17.1099 27.5353 12.0682C27.5534 10.6339 27.5126 9.19958 27.5489 7.763C27.5647 7.13761 27.4152 6.83851 26.7309 6.70709C24.7346 6.31962 22.761 5.80073 20.767 5.40646C20.2179 5.31621 19.6564 5.33624 19.1152 5.46537C16.9399 5.91856 14.7782 6.44198 12.6052 6.90875C11.9594 7.04697 11.1347 7.31662 10.9194 6.36041C10.7041 5.40419 11.4813 5.28863 12.177 5.13682C14.4587 4.63832 16.7292 4.08091 19.02 3.62773C19.7475 3.48835 20.4949 3.48835 21.2225 3.62773C23.5518 4.08091 25.8562 4.66324 28.181 5.14588C29.0285 5.32262 29.4114 5.72142 29.3729 6.60965C29.3231 7.74261 29.3593 8.87783 29.3593 10.5523Z"
      fill="white" />
    <path
      d="M18.3334 14.8825L23.5971 10.1241C23.7336 9.94558 23.9056 9.79743 24.1024 9.68901C24.2373 9.61222 24.3891 9.57017 24.5443 9.56665C24.7676 9.57317 24.9806 9.66194 25.1425 9.8159C25.3202 9.97714 25.4323 10.1981 25.4574 10.4368C25.4741 10.6463 25.4073 10.854 25.2716 11.0146C24.3653 11.9685 23.3433 12.816 22.3622 13.7042C21.2995 14.6672 20.2209 15.6143 19.1763 16.5955C18.4852 17.2435 17.8848 17.2753 17.2707 16.5048C16.8175 15.9293 16.4595 15.5237 16.1967 15.2269C15.7775 14.7556 15.5622 14.6219 15.4149 14.2231C15.335 14.0054 15.2944 13.7752 15.2949 13.5433C15.3251 13.4035 15.3924 13.2743 15.4897 13.1694C15.6524 13.0061 15.8733 12.914 16.1038 12.9134C16.3272 12.9156 16.5446 12.9859 16.7269 13.1151C17.0198 13.3079 17.271 13.5575 17.4656 13.8492C17.6627 14.0939 17.9528 14.4542 18.3334 14.8825Z"
      fill="white" />
    <path
      d="M11.5652 10.2691C12.1646 10.2691 12.6505 9.78319 12.6505 9.18376C12.6505 8.58432 12.1646 8.09839 11.5652 8.09839C10.9657 8.09839 10.4798 8.58432 10.4798 9.18376C10.4798 9.78319 10.9657 10.2691 11.5652 10.2691Z"
      fill="white" />
  </g>
  <defs>
    <clipPath id="clip0_50_47">
      <rect width="40" height="46.4012" fill="white" />
    </clipPath>
  </defs>
</svg>
