<svg width="47" height="47" viewBox="0 0 47 47" fill="none" xmlns="http://www.w3.org/2000/svg">
  <g clip-path="url(#clip0_50_11)">
    <path
      d="M12.5624 24.3014L10.9624 25.9005L10.195 25.134C10.0218 24.9667 9.78996 24.8742 9.54927 24.8763C9.30859 24.8784 9.07835 24.9749 8.90815 25.1451C8.73795 25.3153 8.64141 25.5456 8.63932 25.7863C8.63723 26.027 8.72975 26.2588 8.89697 26.432L10.3134 27.8484C10.4855 28.0205 10.719 28.1172 10.9624 28.1172C11.2058 28.1172 11.4393 28.0205 11.6114 27.8484L13.8604 25.5994C13.9481 25.5147 14.018 25.4134 14.0661 25.3014C14.1143 25.1894 14.1396 25.069 14.1406 24.9471C14.1417 24.8252 14.1185 24.7043 14.0723 24.5915C14.0262 24.4787 13.958 24.3762 13.8718 24.29C13.7856 24.2038 13.6831 24.1356 13.5703 24.0895C13.4575 24.0433 13.3366 24.0201 13.2147 24.0212C13.0928 24.0222 12.9724 24.0475 12.8604 24.0956C12.7484 24.1438 12.6471 24.2137 12.5624 24.3014Z"
      fill="white" />
    <path
      d="M12.5624 29.4026L10.9624 31.0017L10.195 30.2352C10.0218 30.0679 9.78996 29.9754 9.54927 29.9775C9.30859 29.9796 9.07835 30.0761 8.90815 30.2463C8.73795 30.4165 8.64141 30.6468 8.63932 30.8875C8.63723 31.1282 8.72975 31.36 8.89697 31.5332L10.3134 32.9496C10.4855 33.1217 10.719 33.2184 10.9624 33.2184C11.2058 33.2184 11.4393 33.1217 11.6114 32.9496L13.8604 30.7006C13.9481 30.6159 14.018 30.5146 14.0661 30.4026C14.1143 30.2906 14.1396 30.1701 14.1406 30.0483C14.1417 29.9264 14.1185 29.8055 14.0723 29.6927C14.0262 29.5799 13.958 29.4774 13.8718 29.3912C13.7856 29.305 13.6831 29.2368 13.5703 29.1907C13.4575 29.1445 13.3366 29.1213 13.2147 29.1223C13.0928 29.1234 12.9724 29.1487 12.8604 29.1968C12.7484 29.245 12.6471 29.3149 12.5624 29.4026Z"
      fill="white" />
    <path
      d="M12.5624 34.5028L10.9624 36.1028L10.195 35.3354C10.0218 35.1681 9.78996 35.0756 9.54927 35.0777C9.30859 35.0798 9.07835 35.1763 8.90815 35.3465C8.73795 35.5167 8.64141 35.747 8.63932 35.9877C8.63723 36.2284 8.72975 36.4602 8.89697 36.6334L10.3134 38.0498C10.4855 38.2219 10.719 38.3186 10.9624 38.3186C11.2058 38.3186 11.4393 38.2219 11.6114 38.0498L13.8613 35.8008C13.9466 35.7155 14.0143 35.6144 14.0605 35.503C14.1067 35.3916 14.1304 35.2722 14.1305 35.1516C14.1305 35.0311 14.1068 34.9117 14.0607 34.8002C14.0146 34.6888 13.947 34.5876 13.8618 34.5023C13.7766 34.417 13.6754 34.3494 13.564 34.3032C13.4526 34.257 13.3332 34.2332 13.2127 34.2332C13.0921 34.2331 12.9727 34.2568 12.8613 34.3029C12.7499 34.349 12.6486 34.4166 12.5633 34.5018L12.5624 34.5028Z"
      fill="white" />
    <path
      d="M30.3306 27.0011C31.8425 27.0011 33.2525 27.6685 34.3017 28.8811C34.3879 28.9807 34.4945 29.0605 34.6142 29.1152C34.734 29.1699 34.8641 29.1982 34.9957 29.1982C35.1274 29.1982 35.2575 29.1699 35.3772 29.1152C35.497 29.0605 35.6035 28.9807 35.6897 28.8811C36.7389 27.6685 38.1489 27.0011 39.6608 27.0011C41.4582 27.0011 43.1491 27.9806 44.1782 29.6219C44.3077 29.8281 44.5138 29.9745 44.7512 30.0287C44.9886 30.0829 45.2378 30.0406 45.444 29.9111C45.6503 29.7816 45.7966 29.5754 45.8508 29.338C45.905 29.1006 45.8627 28.8514 45.7332 28.6452C44.3636 26.466 42.0935 25.1652 39.6608 25.1652C39.2902 25.1653 38.9203 25.196 38.5547 25.257V5.875C38.5532 4.65815 38.0692 3.49155 37.2087 2.6311C36.3483 1.77066 35.1817 1.28662 33.9648 1.28516H28.2734C27.9552 0.884186 27.5505 0.560322 27.0895 0.337778C26.6285 0.115233 26.1232 -0.00023532 25.6113 3.2397e-06H12.9434C12.4314 -0.000704503 11.9259 0.114556 11.4648 0.337136C11.0038 0.559715 10.5991 0.883831 10.2813 1.28516H4.58984C3.37299 1.28662 2.20639 1.77066 1.34594 2.6311C0.485497 3.49155 0.0014576 4.65815 0 5.875L0 42.4102C0.0014576 43.627 0.485497 44.7936 1.34594 45.6541C2.20639 46.5145 3.37299 46.9985 4.58984 47H34.9957C35.1797 47 35.3595 46.9446 35.5116 46.8412C35.787 46.6521 42.3588 42.1596 45.4193 37.488C45.4856 37.3872 45.5314 37.2744 45.5541 37.1559C45.5767 37.0374 45.5759 36.9156 45.5515 36.7975C45.5271 36.6793 45.4797 36.5672 45.412 36.4673C45.3442 36.3675 45.2575 36.282 45.1567 36.2157C45.0559 36.1494 44.9431 36.1036 44.8246 36.0809C44.7061 36.0582 44.5843 36.0591 44.4662 36.0835C44.3481 36.1079 44.2359 36.1553 44.136 36.223C44.0362 36.2907 43.9507 36.3775 43.8844 36.4782C41.4977 40.1171 36.5875 43.8101 34.9921 44.9575C31.7314 42.6415 24.8274 36.9418 24.8274 33.1047C24.8274 29.7367 27.2958 26.9975 30.3352 26.9975L30.3306 27.0011ZM28.9959 3.1211H33.9648C34.6952 3.1211 35.3957 3.41124 35.9122 3.9277C36.4286 4.44416 36.7188 5.14462 36.7188 5.875V25.8353C36.0929 26.1315 35.5127 26.5158 34.9957 26.9764C34.959 26.9433 34.9205 26.9121 34.8828 26.88V5.875C34.8828 5.63154 34.7861 5.39805 34.6139 5.2259C34.4418 5.05375 34.2083 4.95703 33.9648 4.95703H28.6269C28.8774 4.47501 29.008 3.93972 29.0078 3.39649C29.0078 3.30469 29.0032 3.21289 28.9959 3.1211ZM12.9434 1.83594H25.6113C26.0252 1.83594 26.4221 2.00036 26.7148 2.29301C27.0075 2.58567 27.1719 2.9826 27.1719 3.39649C27.1719 3.81037 27.0075 4.2073 26.7148 4.49996C26.4221 4.79262 26.0252 4.95703 25.6113 4.95703H12.9434C12.5295 4.95703 12.1325 4.79262 11.8399 4.49996C11.5472 4.2073 11.3828 3.81037 11.3828 3.39649C11.3828 2.9826 11.5472 2.58567 11.8399 2.29301C12.1325 2.00036 12.5295 1.83594 12.9434 1.83594ZM29.9698 43.3281C30.7712 44.023 31.5387 44.6445 32.2051 45.1641H4.58984C3.85946 45.1641 3.159 44.8739 2.64254 44.3575C2.12608 43.841 1.83594 43.1405 1.83594 42.4102V5.875C1.83594 5.14462 2.12608 4.44416 2.64254 3.9277C3.159 3.41124 3.85946 3.1211 4.58984 3.1211H9.55881C9.55147 3.21289 9.54688 3.30469 9.54688 3.39649C9.54664 3.93972 9.67732 4.47501 9.92783 4.95703H4.58984C4.34638 4.95703 4.11289 5.05375 3.94074 5.2259C3.76859 5.39805 3.67188 5.63154 3.67188 5.875V42.4102C3.67188 42.6536 3.76859 42.8871 3.94074 43.0593C4.11289 43.2314 4.34638 43.3281 4.58984 43.3281H29.9698ZM23.3109 30.7878H16.4987C16.2552 30.7878 16.0217 30.8845 15.8496 31.0566C15.6774 31.2288 15.5807 31.4623 15.5807 31.7057C15.5807 31.9492 15.6774 32.1827 15.8496 32.3548C16.0217 32.527 16.2552 32.6237 16.4987 32.6237H23.0052C22.996 32.7846 22.9914 32.9462 22.9914 33.1084C22.9914 33.9694 23.22 34.896 23.6772 35.888H16.4987C16.2552 35.888 16.0217 35.9847 15.8496 36.1569C15.6774 36.329 15.5807 36.5625 15.5807 36.806C15.5807 37.0494 15.6774 37.2829 15.8496 37.4551C16.0217 37.6272 16.2552 37.7239 16.4987 37.7239H24.7319C25.5361 38.9063 26.6165 40.1624 27.9733 41.4922H5.50781V6.79297H33.0469V25.7325C32.2071 25.3662 31.3019 25.1734 30.3858 25.1655C29.4696 25.1576 28.5613 25.3348 27.7153 25.6866H16.4987C16.2552 25.6866 16.0217 25.7833 15.8496 25.9555C15.6774 26.1276 15.5807 26.3611 15.5807 26.6046C15.5807 26.848 15.6774 27.0815 15.8496 27.2537C16.0217 27.4258 16.2552 27.5225 16.4987 27.5225H25.1175C24.2696 28.4557 23.651 29.5737 23.3109 30.7878Z"
      fill="white" />
    <path
      d="M36.7729 34.2871C36.5758 34.2871 36.384 34.3506 36.2258 34.4682C36.0676 34.5857 35.9514 34.7511 35.8944 34.9397L35.631 35.8146L34.0328 31.6837C33.964 31.5067 33.842 31.3554 33.6836 31.2506C33.5252 31.1458 33.3382 31.0928 33.1484 31.0987C32.9586 31.1047 32.7753 31.1693 32.6238 31.2838C32.4723 31.3983 32.36 31.5569 32.3024 31.7379L31.4955 34.2834H29.2832C29.0397 34.2834 28.8063 34.3801 28.6341 34.5523C28.4619 34.7244 28.3652 34.9579 28.3652 35.2014C28.3652 35.4448 28.4619 35.6783 28.6341 35.8505C28.8063 36.0226 29.0397 36.1193 29.2832 36.1193H32.1656C32.3608 36.1192 32.5509 36.0568 32.7082 35.9412C32.8655 35.8257 32.9819 35.663 33.0404 35.4768L33.2617 34.7791L34.8828 38.9669C34.9496 39.1395 35.0671 39.2879 35.2198 39.3926C35.3725 39.4973 35.5532 39.5534 35.7384 39.5535H35.7742C35.9651 39.5461 36.149 39.4794 36.3003 39.3626C36.4515 39.2458 36.5625 39.0846 36.6178 38.9017L37.4531 36.123H40.1217C40.3651 36.123 40.5986 36.0263 40.7708 35.8541C40.9429 35.682 41.0396 35.4485 41.0396 35.205C41.0396 34.9616 40.9429 34.7281 40.7708 34.5559C40.5986 34.3838 40.3651 34.2871 40.1217 34.2871H36.7729Z"
      fill="white" />
    <path
      d="M23.6836 13.4023H22.0312V11.75C22.0312 11.5065 21.9345 11.2731 21.7624 11.1009C21.5902 10.9287 21.3567 10.832 21.1133 10.832H17.4414C17.1979 10.832 16.9645 10.9287 16.7923 11.1009C16.6202 11.2731 16.5234 11.5065 16.5234 11.75V13.4023H14.8711C14.6276 13.4023 14.3941 13.4991 14.222 13.6712C14.0498 13.8434 13.9531 14.0769 13.9531 14.3203V17.9922C13.9531 18.2356 14.0498 18.4691 14.222 18.6413C14.3941 18.8134 14.6276 18.9102 14.8711 18.9102H16.5234V20.5625C16.5234 20.806 16.6202 21.0394 16.7923 21.2116C16.9645 21.3838 17.1979 21.4805 17.4414 21.4805H21.1133C21.3567 21.4805 21.5902 21.3838 21.7624 21.2116C21.9345 21.0394 22.0312 20.806 22.0312 20.5625V18.9102H23.6836C23.9271 18.9102 24.1605 18.8134 24.3327 18.6413C24.5048 18.4691 24.6016 18.2356 24.6016 17.9922V14.3203C24.6016 14.0769 24.5048 13.8434 24.3327 13.6712C24.1605 13.4991 23.9271 13.4023 23.6836 13.4023ZM22.7656 17.0742H21.1133C20.8698 17.0742 20.6363 17.1709 20.4642 17.3431C20.292 17.5152 20.1953 17.7487 20.1953 17.9922V19.6445H18.3594V17.9922C18.3594 17.7487 18.2627 17.5152 18.0905 17.3431C17.9184 17.1709 17.6849 17.0742 17.4414 17.0742H15.7891V15.2383H17.4414C17.6849 15.2383 17.9184 15.1416 18.0905 14.9694C18.2627 14.7973 18.3594 14.5638 18.3594 14.3203V12.668H20.1953V14.3203C20.1953 14.5638 20.292 14.7973 20.4642 14.9694C20.6363 15.1416 20.8698 15.2383 21.1133 15.2383H22.7656V17.0742Z"
      fill="white" />
    <path
      d="M46.082 34.0264C46.589 34.0264 47 33.6154 47 33.1084C47 32.6014 46.589 32.1904 46.082 32.1904C45.5751 32.1904 45.1641 32.6014 45.1641 33.1084C45.1641 33.6154 45.5751 34.0264 46.082 34.0264Z"
      fill="white" />
  </g>
  <defs>
    <clipPath id="clip0_50_11">
      <rect width="47" height="47" fill="white" />
    </clipPath>
  </defs>
</svg>
