<svg width="35" height="40" viewBox="0 0 35 40" fill="none" xmlns="http://www.w3.org/2000/svg">
<g clip-path="url(#clip0_46_205)">
<path d="M17.455 -0.000372206C19.7579 -0.00860586 22.0398 0.42127 24.1695 1.26455C26.2992 2.10783 28.2348 3.34788 29.8649 4.91345C31.4951 6.47901 32.7878 8.33922 33.6686 10.3872C34.5495 12.4351 35.0011 14.6304 34.9976 16.8469C34.9976 20.8625 33.521 24.4877 31.3589 27.8513C28.3915 32.4701 24.7021 36.4408 19.82 39.2793C18.3657 40.1246 16.9114 40.3042 15.4369 39.4023C8.09451 34.9123 2.69726 28.8605 0.53511 20.679C-2.25175 10.1314 6.1859 0.0152452 17.455 -0.000372206ZM31.9187 16.3979C31.8518 15.904 31.7787 15.0314 31.6023 14.1704C31.2411 12.3555 30.5046 10.629 29.4363 9.0935C28.368 7.55803 26.9899 6.24498 25.3838 5.2324C23.7777 4.21983 21.9765 3.52841 20.0872 3.19926C18.1979 2.8701 16.2592 2.90993 14.3862 3.31637C6.51651 4.95619 1.53302 12.4896 3.57144 20.0582C5.48817 27.1836 10.2343 32.392 16.4003 36.5365C17.5138 37.2842 18.2826 36.7512 19.104 36.2066C23.6285 33.201 27.2996 29.1536 29.7829 24.433C31.1433 21.957 31.8752 19.2062 31.9187 16.4057V16.3979Z" fill="white"/>
<path d="M13.8247 24.98C12.334 24.9644 11.2083 24.0273 11.0399 22.696C10.9284 21.798 11.0054 20.8765 10.8979 19.9746C10.8343 19.4769 10.6555 18.9993 10.3746 18.5769C9.91624 17.9014 9.31385 17.3158 8.81489 16.6618C7.76627 15.2953 8.29362 13.5227 9.92639 12.8765C10.2006 12.7517 10.4893 12.6586 10.7864 12.5993C12.8613 12.3085 14.2182 11.1547 15.1573 9.39972C15.4134 8.94502 15.7828 8.55864 16.2323 8.27526C17.2992 7.60762 18.9015 7.84579 19.5222 8.98C20.7128 11.1547 22.5017 12.2987 24.9357 12.8726C25.3455 12.9628 25.7231 13.1563 26.0297 13.4333C26.3363 13.7102 26.5609 14.0606 26.6804 14.4486C26.7999 14.8366 26.81 15.2482 26.7098 15.6412C26.6096 16.0343 26.4026 16.3946 26.11 16.6852C24.5462 18.3075 23.8789 20.0566 23.9601 22.2762C24.0331 24.3085 22.2441 25.5051 20.3092 24.7418C18.3377 23.961 16.5183 23.8712 14.63 24.7906C14.3719 24.8892 14.1009 24.9529 13.8247 24.98ZM11.7965 15.4749C13.9829 17.1616 14.2446 19.3792 14.0276 22.0888C16.4149 20.5447 18.6074 20.7126 21.0251 21.9776C20.6641 19.305 21.1712 17.144 23.236 15.428C20.5262 15.0064 18.6642 13.716 17.4838 11.3441C16.3885 13.7999 14.4312 14.9673 11.7883 15.4749H11.7965Z" fill="white"/>
</g>
<defs>
<clipPath id="clip0_46_205">
<rect width="35" height="40" fill="white"/>
</clipPath>
</defs>
</svg>
